<svg xmlns="http://www.w3.org/2000/svg" viewBox="0 0 400 267"><defs/><rect width="100%" height="100%" fill="#534532"/><g fill-opacity=".5"><path fill="#1453b1" d="M-24.2 14.8l448.4-37.5L369.5 143z"/><path fill="#000808" d="M-24.2 204L18-24.3 300.8 171z"/><path fill="#c9cfd1" d="M261.7 83.6l162.5-3.1-159.4 54.7z"/><path fill="#859693" d="M221 252.3l150 28.2-39-122z"/><path fill="#121a1a" d="M169.5-24.2L218 258.6l45.3-243.8z"/><path fill="#3a6ac4" d="M232 83.6l192.2-100-28.1 107.8z"/><path fill="#8f744b" d="M61.7 197.7l-84.4 65.6 303.2 12.5z"/><path fill="#2762b2" d="M214.8 43L52.3 38.3 179 85.2z"/><path d="M302.3 219.5l65.7 42.2-65.7-11z"/><path fill="#1f1a06" d="M422.7 149.2l1.5-65.6-157.8 75z"/><path fill="#caeef5" d="M229 246l71.8 3.2-25 12.5z"/><path fill="#0d1f35" d="M235.2-24.2L22.7 7l314 37.5z"/><path fill="#9e9183" d="M424.2 72.7l-178.1 40.6 71.9 23.4z"/><path fill="#2b2c20" d="M138.3 289.8l126.5-98.4-25-215.6z"/><path fill="#e4f0ec" d="M310.2 113.3l28-17.2-62.4-9.4z"/><path fill="#b8cbcb" d="M279 208.6l51.5-15.6-23.5 26.5z"/><path fill="#1a519e" d="M114.8 61.7l-34.3-86 139 97z"/><path fill="#285ea5" d="M269.5 96l-46.8-28 128-36z"/><path fill="#775b3a" d="M424.2 182l-114-28 50 117z"/><path fill="#15170d" d="M199.2 97.7L21.1 196-7 19.5z"/></g></svg>