<svg xmlns="http://www.w3.org/2000/svg" viewBox="0 0 400 267"><rect width="100%" height="100%" fill="#353a5b"/><g fill-opacity=".5"><path fill="#fff" d="M393-24.2L-24.2 80.5l448.4 56.2z"/><path fill="#d7e3f4" d="M424.2 2.3L111.7 136.7l-136-139z"/><path fill="#1a1c0f" d="M413.3 102.3L396 289.8-24.2 254z"/><path fill="#decbb9" d="M189.8 108.6l-214-7.8L-10.2-4z"/><path fill="#fdeada" d="M72.7 93L407-16.4l7.8 95.3z"/><path fill="#3a73cb" d="M-2.3-16.4L366.4-.8 116.4 57z"/><path fill="#554e48" d="M218 82l101.5 207.8L72.7 146.1z"/><path fill="#051018" d="M10.2 271l239 4.8-264-164z"/><path fill="#bdb6b1" d="M194.5 75.8l143.8 68.7-40.6-111z"/><path fill="#2d3551" d="M-22.7 244.5L86.7 97.7l70.3 51.5z"/><path fill="#353b67" d="M424.2 105.5l-137.5 39 109.4 31.3z"/><path fill="#a0989c" d="M-21 80.5L.7 32l175 95.3z"/><path fill="#fff9f4" d="M314.8 68l7.9-28.2 87.5 29.7z"/><path fill="#b0937a" d="M285.2 130.5l139-54.7-51.5 46.9z"/><path fill="#081626" d="M113.3 152.3L-19.5 289.8l204.7-18.7z"/><path fill="#eaddd6" d="M-24.2 8.6l57.8-32.8L18 43z"/><path fill="#dfd4cb" d="M360.2 21l-197 20.4-37.4 79.7z"/><path fill="#413e3e" d="M230.5 104l93.7 150-176.5-11z"/><path fill="#537ab9" d="M352.3-24.2l-60.9 48.4-96.9-1.5z"/><path fill="#7b6c69" d="M205.5 85.2l46.8 29.6-110.9 11z"/></g></svg>