<svg xmlns="http://www.w3.org/2000/svg" viewBox="0 0 400 267"><rect width="100%" height="100%" fill="#635738"/><g fill-opacity=".5"><path fill="#96e6ff" d="M391.4-24.2L-24.2 91.4l448.4 104.7z"/><path fill="#2e77ff" d="M5.5-24.2l-29.7 168.7L424.2 10.2z"/><path fill="#e3f1ff" d="M-24.2 89.8L293 154l131.2-98.4z"/><path fill="#001c68" d="M408.6 129L86.7 186.6 424.2 229z"/><path fill="#fff" d="M261.7 80.5l162.5-14-28.1 67z"/><path fill="#7a9fd3" d="M249.2 168L58.6 33.6l-82.8 71.9z"/><path fill="#2760d1" d="M424.2 63.3l-34.4-87.5L72.7 28.9z"/><path fill="#1a3666" d="M33.6 191.4l-57.8-71.9 290.6 32.8z"/><path fill="#0b0c04" d="M188.3 241.4h145.3l-95.3-51.6z"/><path fill="#0e3374" d="M424.2 238.3l-111-103.1 42.3-25z"/><path fill="#2159bf" d="M16.4-24.2l234.4 78.1-275 7.8z"/><path fill="#c8ddff" d="M424.2 124.2V43l-264 46.8z"/><path fill="#93b6d6" d="M319.5 147.7l-343.7-31.3L118 61.7z"/><path fill="#739cde" d="M158.6 74.2L363.3 68l-65.6-36z"/><path fill="#6c521d" d="M11.7 163.3l231.3 50-265.7 76.5z"/><path fill="#2a5779" d="M164.8 189.8l212.5-1.5-221.8-57.8z"/><path fill="#21293c" d="M-24.2 130.5l93.7-9.4 1.6 61z"/><path fill="#0c2219" d="M208.6 213.3l-67.2-25 115.6 1.5z"/><path fill="#000107" d="M424.2 185.2v34.3l-87.5-1.5z"/><path fill="#86a0cd" d="M-5.5 135.2L107 69.5-18 52.3z"/></g></svg>