<svg xmlns="http://www.w3.org/2000/svg" viewBox="0 0 400 267"><defs/><rect width="100%" height="100%" fill="#2c4059"/><g fill-opacity=".5"><path fill="#b2ffff" d="M-24.2.8L424.2-.8 285.2 143z"/><path fill="#fff1c2" d="M363.3 164.8l-89 90.7 115.5 1.5z"/><path fill="#bcffff" d="M277.3-24.2L-24.2 30.5 424.2 68z"/><path fill="#285180" d="M136.7 230.5L424.2 85.2l-354.7-50z"/><path fill="#cdffff" d="M-24.2 38.3l43.7-62.5 228.2 57.8z"/><path fill="#101104" d="M324.2 189.8l-61 100-287.4-34.3z"/><path fill="#7dd1ff" d="M391.4-24.2L33.6 5.5l390.6 71.8z"/><path fill="#48687a" d="M97.7 221L224.2 64.9l173.5 107.9z"/><path fill="#6f5e40" d="M355.5 289.8l68.7-37.5-48.4-104.6z"/><path fill="#4b92d6" d="M332 47.7l-140.6 81.2 79.7 12.5z"/><path fill="#d1c0af" d="M375.8 168l-25 107.8-46.9-56.3z"/><path fill="#164585" d="M177.3 136.7l103.2-39-79.7-53.2z"/><path fill="#1d3b61" d="M424.2 89.8l-62.5-34.3-96.9 75z"/><path fill="#67beff" d="M168-.8l251.5-15.6 4.7 71.9z"/><path fill="#b8e9ff" d="M207 16.4L21 43l-45.2-54.7z"/><path fill="#529bea" d="M211.7 47.7l176.6 7.8-111 29.7z"/><path fill="#122d4f" d="M207 132L-24.2 85.2l153.1-26.6z"/><path fill="#3e6eb2" d="M24.2 44.5l71.9-11 70.3 33z"/><path fill="#baeeff" d="M382 21L269.5 44.6 424.2 54z"/><path fill="#c2e9ff" d="M244.5 35.2L171.1 57 88.3 18z"/></g></svg>