<svg xmlns="http://www.w3.org/2000/svg" viewBox="0 0 400 267"><rect width="100%" height="100%" fill="#5b4a2d"/><g fill-opacity=".5"><path fill="#58d7ff" d="M-22.7-24.2l447 34.4-411 134.3z"/><path fill="#4c8cff" d="M424.2.8L213.2 157-24.1-2.3z"/><path fill="#4799ff" d="M325.8-5.5L396 138.3l28.1-150z"/><path fill="#0f0f07" d="M172.7 57l-197 140.7 204.8-3.2z"/><path fill="#73b4ff" d="M-4 118l279.8-76.6L2.3-24.2z"/><path fill="#353019" d="M324.2 11.7l100 259.4-268.7-15.6z"/><path fill="#4f9cf9" d="M241.4 180.5L275.8.8l-170.3-25z"/><path fill="#90d4ff" d="M-24.2 66.4l153.1-1.6L77.3 129z"/><path fill="#599dff" d="M424.2 122.7l-51.5-9.4 3-137.5z"/><path fill="#250900" d="M186.7 96l-111 28.2 73.5-57.8z"/><path fill="#18173f" d="M-24.2 171L96 141.5l-112.5-50z"/><path fill="#395f8a" d="M254 186.7l-95.4-21.9 68.7-65.6z"/><path fill="#66b5fa" d="M335.2 18l-161 131.2 12.5-75z"/><path fill="#5a4423" d="M371 55.5L258.7 75.8l62.5 214z"/><path fill="#456feb" d="M224.2-4l200 1.7-29.7 71.8z"/><path fill="#0f1007" d="M411.7 136.7l-78.1 98.5 57.8 54.6z"/><path fill="#000204" d="M-24.2 239.8h134.4L-2.3 271.1z"/><path fill="#17160a" d="M111.7 272.7l65.6-82.9 79.7 31.3z"/><path fill="#8f753b" d="M111.7 222.7l87.5-7.9-123.4-42.1z"/><path fill="#472c10" d="M372.7 66.4L252.3 94.5l59.4-57.8z"/></g></svg>