<svg xmlns="http://www.w3.org/2000/svg" viewBox="0 0 400 267"><defs/><rect width="100%" height="100%" fill="#494136"/><g fill-opacity=".5"><path fill="#d6f6ff" d="M383.6 182L-24.2 8.6l446.9-32.8z"/><path fill="#e7ecf2" d="M316.4 155.5l-314-25-26.6-122z"/><path d="M375.8 138.3l48.4 56.2-209.4-23.4z"/><path fill="#b6c8ff" d="M361.7-5.5l-150 165.7-81.2-184.4z"/><path fill="#292e3f" d="M25.8 14.8l164 84.4-60.9 36z"/><path fill="#efe4e4" d="M88.3 96L-4-24.1l-20.3 173.4z"/><path fill="#bad5ff" d="M305.5 125.8l117.2 23.4-12.5-168.7z"/><path fill="#cfd1fb" d="M19.5-18l120.3 123.5-28-129.7z"/><path fill="#0c0a1b" d="M169.5 133.6l-50-111 29.7-14z"/><path fill="#393949" d="M369.5 36.7L279 66.4l-40.6 100z"/><path fill="#ce955a" d="M149.2 238.3l140.6-14-146.8-25z"/><path fill="#01070a" d="M-24.2 157l281.2 3.2-189 48.4z"/><path d="M286.7 155.5l39 43.7 98.5-46.9z"/><path fill="#7a6f5a" d="M29 166.4l18.7-53.1L207 150.8z"/><path fill="#d5d5d1" d="M200.8 160.2l-39-131.3 100 101.6z"/><path fill="#667175" d="M421 238.3l-181.2-21.9L424.2 182z"/><path fill="#1d200b" d="M361.7 235.2l-190.6-9.4 20.3 64z"/><path fill="#87a2d9" d="M424.2-24.2L282 89.8 224.2-19.5z"/><path fill="#1f2834" d="M175.8 88.3l-40.6 9.4 53 48.4z"/><path fill="#262222" d="M86.7 61.7L58.6 19.5l-25 17.2z"/></g></svg>