<svg xmlns="http://www.w3.org/2000/svg" viewBox="0 0 400 267"><rect width="100%" height="100%" fill="#495331"/><g fill-opacity=".5"><path fill="#8ed4ff" d="M179 210.2L-24.3-.8 424.2.8z"/><path fill="#87beff" d="M424.2 138.3L386.7-24.2-24.3 107z"/><path d="M424.2 268l-448.4-23.5L43 111.7z"/><path fill="#d8eaff" d="M-18-5.5l-6.2 145.3L168 46.1z"/><path fill="#0849c1" d="M44.5 39.8L424.2 32 252.3-24.2z"/><path fill="#a4d3ff" d="M154 132l270.2-82.8v76.6z"/><path fill="#151b0d" d="M-24.2 216.4L424.2 118l-46.9 171.8z"/><path fill="#afc7e7" d="M157 168L13.3-13.3l-26.6 89z"/><path fill="#2d68cd" d="M424.2 8.6l-100-32.8 31.3 126.5z"/><path fill="#000002" d="M108.6 263.3L166.4 143l57.8 89z"/><path fill="#638bac" d="M227.3 169.5L91.4 32l-7.8 114z"/><path fill="#97c0d7" d="M313.3 136.7L222.7 79l-136 50z"/><path fill="#434c27" d="M316.4 129l-115.6 46.8L296 277.3z"/><path fill="#3b73c9" d="M222.7-16.4l-247 7.8L207 54z"/><path fill="#e2e3e4" d="M285.2 41.4L271 79l-64-42.2z"/><path fill="#8fb4da" d="M-14.8 161.7l4.6-21.9L43 160.2z"/><path fill="#d8dfdf" d="M129 21l53 34.5-71.8 6.2z"/><path fill="#040a11" d="M-22.7 227.3l206.3 39.1-67.2-126.6z"/><path fill="#566e78" d="M143 174.2l-65.7-46.9 218.8 9.4z"/><path fill="#3f86c8" d="M107 66.4l92.2 40.6 28.1-54.7z"/></g></svg>