<svg xmlns="http://www.w3.org/2000/svg" viewBox="0 0 400 267"><defs/><rect width="100%" height="100%" fill="#514832"/><g fill-opacity=".5"><path fill="#4bb5ff" d="M424.2 64.8L7-24.2l-31.2 239z"/><path fill="#4089ed" d="M80.5-24.2L424.2-2.3l-36 126.5z"/><path fill="#7fb5d7" d="M360.2 102.3l-384.4-25 37.5 95.4z"/><path fill="#27343a" d="M214.8 147.7l-239 118.7 23.4-100z"/><path fill="#3064ad" d="M424.2 47.7l-443.7-72 43.7 134.5z"/><path fill="#4f86bc" d="M29 122.7l371.8-147 23.4 118.8z"/><path fill="#a6c0af" d="M186.7 141.4l-211-18.7L35.3 168z"/><path fill="#725f2e" d="M424.2 99.2L266.4 289.8l86-190.6z"/><path fill="#364c56" d="M233.6 177.3L28.9 230.5l-53.1-70.3z"/><path fill="#2c5c98" d="M286.7 66.4l-15.6-90.6L-24.2 5.5z"/><path fill="#bb8b47" d="M218 197.7l54.7 12.5-6.3-25z"/><path d="M263.3 182l32.8 1.6v29.7z"/><path fill="#a57934" d="M352.3 186.7l72 17.2-128.2 4.7z"/><path fill="#16150c" d="M74.2 289.8l54.7-45.3-134.4 15.7z"/><path fill="#649fcc" d="M424.2 86.7l-221.9 46.9 89.1-54.7z"/><path fill="#a3a8ac" d="M260.2-24.2l70.3 51.5-29.7 4.7z"/><path fill="#0d2532" d="M107 179l-131.2 15.5 28.1-31.2z"/><path fill="#4b5a5e" d="M144.5 152.3L4 210.2l159.4 3z"/><path fill="#000713" d="M186.7 185.2l36 20.3-59.4-3.2z"/><path fill="#000500" d="M385.2 163.3l-31.3 17.2 70.3-3.2z"/></g></svg>