<svg xmlns="http://www.w3.org/2000/svg" viewBox="0 0 400 267"><defs/><rect width="100%" height="100%" fill="#554c2c"/><g fill-opacity=".5"><path fill="#fff1ec" d="M54 188.3L-24.3-24.2 424.2 132z"/><path fill="#6a81ac" d="M397.7 172.7L-24.3.7l448.5-15.5z"/><path d="M-24.2 175.8l403.1 100-379.7 14z"/><path fill="#d5be9b" d="M389.8 158.6l-392.1-9.4-22-115.6z"/><path fill="#786763" d="M71 199.2l264.2 59.4 84.3-173.4z"/><path fill="#000007" d="M185.2 269.5l-209.4 3.2 21.9-134.4z"/><path fill="#ffc87e" d="M185.2 182l-76.6-98.4L57 178.9z"/><path fill="#888c94" d="M.8 119.5L236.8 18 .7-24.2z"/><path fill="#ffbb5f" d="M58.6 199.2l62.5 14 1.6-18.7z"/><path fill="#232b3a" d="M174.2 186.7l236 48.5-3.2-62.5z"/><path fill="#000006" d="M25.8 264.8l140.6-45.3 154.7 43.8z"/><path fill="#2e446b" d="M424.2 96l-225-120.2 225 26.5z"/><path fill="#d5c8b3" d="M91.4 149.2l150-50L38.3 50.8z"/><path fill="#9c9481" d="M414.8 143l-231.2 39 36-146.8z"/><path fill="#8c7d64" d="M19.5 174.2L82 155.5l-86-172z"/><path fill="#ec8f44" d="M135.2 183.6l35.9-31.3-120.3 28.2z"/><path fill="#000209" d="M122.7 189.8L.7 172.7-5.4 207z"/><path fill="#617084" d="M180.5 57l243.7 87.5L225.8-24.2z"/><path fill="#d48956" d="M185.2 222.7l-22-29.7-92.1 6.2z"/><path fill="#ffdc9c" d="M185.2 146l-82.9-26.5-82.8 25z"/></g></svg>