<svg xmlns="http://www.w3.org/2000/svg" viewBox="0 0 400 267"><defs/><rect width="100%" height="100%" fill="#54432b"/><g fill-opacity=".5"><path fill="#fff" d="M-24.2 289.8l448.4-34.3-411-132.8z"/><path fill="#e5ebe9" d="M424.2 168l-268.7-6.3 236 128.1z"/><path fill="#7e806c" d="M63.3-24.2l267.2 259.4 86-248.5z"/><path fill="#251e0f" d="M71-24.2l40.7 179.7-53.1 134.3z"/><path fill="#eff3f5" d="M424.2 264.8l-343.7 25 9.3-89z"/><path fill="#020000" d="M193 257l14-107.8-29.7 54.7z"/><path fill="#57553f" d="M2.3 160.2l417.2 12.5L18-16.4z"/><path fill="#fcfeff" d="M-24.2 218l87.5-59.4L43 289.8z"/><path fill="#241708" d="M338.3-22.7V232L293 111.7z"/><path fill="#adaa96" d="M380.5 13.3l-42.2-37.5 4.7 179.7z"/><path fill="#d3cec9" d="M354 143l70.2 129.7-100 14z"/><path fill="#d9d9d3" d="M318 166.4l-117.2 46.9 104.7 76.5z"/><path fill="#e8ebe8" d="M111.7 289.8l75-100-65.6-23.4z"/><path fill="#b5b9a2" d="M14.8 108.6L13.3-24.2 33.6 43z"/><path fill="#a8a68d" d="M263.3-24.2h40.6l-31.2 153.1z"/><path fill="#abab9a" d="M308.6 163.3L266.4 232 168 155.5z"/><path fill="#302213" d="M100.8-24.2l-14 193.7-53.2-34.3z"/><path fill="#41361e" d="M236.7 121l21.9 92.3 7.8-179.7z"/><path fill="#5b503b" d="M122.7 194.5l-12.5 50-1.6-87.5z"/><path fill="#32280f" d="M419.5 169.5l-37.5-4.7 3.2 45.4z"/></g></svg>