<svg xmlns="http://www.w3.org/2000/svg" viewBox="0 0 400 267"><defs/><rect width="100%" height="100%" fill="#6c5635"/><g fill-opacity=".5"><path fill="#82ceff" d="M75.8 289.8L424.2 49.2-24.2-24.2z"/><path fill="#eef0ef" d="M-24.2 229l437.5-86L118 289.8z"/><path fill="#0067d8" d="M424.2 5.5l-165.6 98.4L71-24.2z"/><path fill="#a7ccf2" d="M250.8 83.6L-22.7 168 16.4.8z"/><path fill="#524d35" d="M-.8 158.6l345.3-36L46.1 239.9z"/><path fill="#b3bdc1" d="M-11.7 289.8l361-92.1-347-18.8z"/><path fill="#aa9164" d="M424.2 286.7l-14-256.2L171 289.8z"/><path fill="#ced3d3" d="M325.8 160.2L119.5 289.8l50-123.4z"/><path fill="#0056ba" d="M146 63.3l254.8-87.5 23.4 68.7z"/><path fill="#b2ab97" d="M93-24.2L307 2.3 197.7 39.8z"/><path fill="#422907" d="M361.7 168l-115.6-40.7L118 154z"/><path fill="#ede9e7" d="M164.8 19.5l-120.3 36L4 13.3z"/><path fill="#3e83c6" d="M80.5 118l-95.3-54.7 198.4-25z"/><path fill="#a2b5ce" d="M424.2 30.5L279 89.8l101.6 26.6z"/><path fill="#5f6563" d="M-8.6 249.2l79.7-39 93.7 9.3z"/><path d="M304 210.2l-14.2 17.1-1.5-46.8z"/><path fill="#dad7c3" d="M132 61.7l-4.7 82.8 81.3-67.2z"/><path fill="#455b56" d="M100.8 144.5L-22.7 204l207.9-15.6z"/><path fill="#bdcac8" d="M-24.2 50.8v103.1l104.7-1.6z"/><path fill="#916b32" d="M397.7 247.7l26.5-139.1-159.4 21.9z"/></g></svg>