<svg xmlns="http://www.w3.org/2000/svg" viewBox="0 0 400 267"><rect width="100%" height="100%" fill="#5e5632"/><g fill-opacity=".5"><path fill="#90caff" d="M424.2.8L-24.2-.8l309.4 196.9z"/><path fill="#87b8ff" d="M-24.2 104l36-128.2L424.1 91.4z"/><path fill="#815e38" d="M-24.2 114.8l415.6 175 32.8-193.7z"/><path fill="#83b4fc" d="M424.2-14.8l-336-9.4 336 146.9z"/><path fill="#dda25a" d="M413.3 204l-214 54.6 195.2 31.2z"/><path fill="#4a7dc4" d="M61.7 82L-24.3.8l364.1 15.6z"/><path fill="#755f40" d="M424.2 108.6l-437.5-11 100 192.2z"/><path fill="#c58842" d="M154 213.3l71.8 40.6L43 269.5z"/><path fill="#9cb3cb" d="M-19.5 25.8l267.2 61-272 14z"/><path fill="#242a0b" d="M218 205.5l206.2 6.2-84.4-36z"/><path fill="#a3b9c4" d="M161.7 79l246.9-31.3 15.6 67.1z"/><path fill="#5b5445" d="M424.2 89.8l-301.5 45.4 257.8 59.3z"/><path fill="#e9e2e4" d="M364.8-24.2L424.2 18l-125-6.3z"/><path fill="#392d0d" d="M-21 229l179.6-14.2L-7 177.3z"/><path fill="#ffc07c" d="M35.2 289.8l-59.4-48.4 43.7 4.7z"/><path fill="#8c7d59" d="M136.7 157l-98.4 32.8L118 82z"/><path fill="#e9c699" d="M155.5 289.8L89.8 243 57 289.8z"/><path fill="#ffc69e" d="M11.7 175.8l1.6-18.8-34.4-11z"/><path fill="#434026" d="M19.5 119.5l14 56.3 6.3-115.6z"/><path fill="#cdad90" d="M424.2 155.5l-61 32.8 61 6.2z"/></g></svg>