<svg xmlns="http://www.w3.org/2000/svg" viewBox="0 0 400 267"><rect width="100%" height="100%" fill="#545936"/><g fill-opacity=".5"><path fill="#77b6ff" d="M193 289.8L424.2 7 80.5-24.2z"/><path fill="#1f1709" d="M424.2 100.8L393 207 4 141.4z"/><path fill="#66abff" d="M18 7l401.5-31.2-42.2 136z"/><path fill="#000317" d="M152.3 75.8L.8 289.8v-314z"/><path fill="#b4d3e9" d="M391.4 82l-226.6 47-31.2-76.7z"/><path fill="#517893" d="M127.3 289.8l9.4-157.8 287.5 118.8z"/><path fill="#140f00" d="M241.4 102.3l-6.2 120.4-48.5-84.4z"/><path fill="#fff6d6" d="M163.3 168l-37.5 18.7 103.1 14z"/><path fill="#100a00" d="M296 141.4l39.2-75 9.3 75z"/><path fill="#90a5ac" d="M238.3 197.7l73.4 53-18.7-117z"/><path fill="#28536b" d="M332 199.2l75 87.5-379.7-25z"/><path fill="#94a0ab" d="M124.2 47.7L69.5 58.6l40.7 28.1z"/><path fill="#0f1b1b" d="M86.7 202.3L129 47.7l3.1 242.1z"/><path fill="#f2e3d1" d="M257 122.7L325.8 96l-153.1 1.6z"/><path d="M61.7 199.2V21.1L-3.9 160z"/><path fill="#162114" d="M249.2 154l-21.9-86-6.2 171.8z"/><path fill="#a7b8c7" d="M94.5 213.3l-34.3 31.2 4.6-46.8z"/><path fill="#fff" d="M308.6 158.6l-20.3-9.4-26.6 6.3zM388.3 71l-37.5 31.3-7.8-18.7z"/><path fill="#66a2f0" d="M168-4L4 39.9l110.8-64z"/></g></svg>