<svg xmlns="http://www.w3.org/2000/svg" viewBox="0 0 400 267"><rect width="100%" height="100%" fill="#2c444c"/><g fill-opacity=".5"><path fill="#faffff" d="M397.7-24.2l-422 51.5 448.5 212.5z"/><path fill="#584500" d="M-24.2 80.5L357 152.3 13.3 289.8z"/><path fill="#88aad0" d="M233.6 141.4L-24.2 54 107-24.2z"/><path fill="#c8d4d6" d="M396-24.2L191.5 99.2l232.8 62.5z"/><path fill="#787d71" d="M346 132l78.2 122-265.6-22z"/><path fill="#6e8ec3" d="M-24.2-8.6L2.3 71.1 293-24.2z"/><path fill="#464700" d="M324.2 289.8L-24.2 132l9.4 151.6z"/><path fill="#1a3030" d="M332 146l-71.8-28-131.3 53z"/><path fill="#dfae68" d="M180.5 232l39-45.3-15.6 54.7z"/><path fill="#8ea4b3" d="M183.6-24.2L-7 66.4 230.5 129z"/><path fill="#748586" d="M424.2 232L257 199.2l73.5-62.5z"/><path fill="#111a00" d="M171 232l-42-46.8 84.3-7.9z"/><path fill="#665626" d="M-8.6 63.3l-1.6 61 212.5 7.7z"/><path fill="#051102" d="M43 182l45.3 14 28.1 93.8z"/><path fill="#7e6e2f" d="M146 177.3l-75-39L43 182z"/><path fill="#b6c3c2" d="M350.8 158.6l73.4-107.8L175.8 57z"/><path fill="#90a7c4" d="M332-19.5l57.8 71.8L82 35.2z"/><path fill="#454b3c" d="M238.3 179l173.4 110.8-221.9-42.1z"/><path fill="#4c72ab" d="M-10.2 35.2l-14-54.7 178.1 32.8z"/><path fill="#a6b3ae" d="M421 122.7L211.8 66.4l-56.2 57.8z"/></g></svg>