<svg xmlns="http://www.w3.org/2000/svg" viewBox="0 0 400 267"><rect width="100%" height="100%" fill="#2e3b4c"/><g fill-opacity=".5"><path fill="#9ee6ff" d="M360.2-24.2l64 145.3L-24.2 93z"/><path fill="#95a59b" d="M89.8 263.3L-16.4-24.2l281.2 314z"/><path fill="#2c7fcb" d="M18-24.2l-42.2 114 448.4-73.4z"/><path fill="#d1e2ed" d="M368 75.8l-167.2 46.9-164-43.8z"/><path fill="#5e5b48" d="M405.5 104l18.7 185.8-448.4-167.1z"/><path fill="#e7f3ff" d="M186.7 289.8l-100-54.6h132.8z"/><path fill="#25639f" d="M57 44.5l367.2 25-29.7-93.7z"/><path fill="#a2c2db" d="M343 235.2l81.2 31.2-46.9-71.9z"/><path fill="#e8f2f9" d="M424.2 107l-26.5-36-125 31.3z"/><path fill="#494b41" d="M72.7 83.6L393 268l-417.2-76.6z"/><path fill="#fff4ac" d="M202.3 185.2l36-4.7-37.5-36z"/><path fill="#c5e4f5" d="M79 86.7l-103.2 25 4.7-59.4z"/><path fill="#202f36" d="M264.8 168L118 119.5 355.5 104z"/><path fill="#a8b4bd" d="M279 289.8l-72-54.6-167.2 25z"/><path fill="#4b83ad" d="M-.8 79l-23.4-93.8L332 61.7z"/><path fill="#4e5a58" d="M-24.2 110.2l36 93.7 78-114z"/><path fill="#281d1e" d="M243 288.3l15.6-123.5L371 285.2z"/><path fill="#72725d" d="M232 179l192.2 10.8-4.7-51.5z"/><path fill="#4e8fbc" d="M424.2 80.5l-173.4-1.6 173.4-68.7z"/><path fill="#181d14" d="M64.8 194.5l-42.1 18.8 76.5 76.5z"/></g></svg>