<svg xmlns="http://www.w3.org/2000/svg" viewBox="0 0 400 267"><rect width="100%" height="100%" fill="#404120"/><g fill-opacity=".5"><path fill="#5f8ecd" d="M-24.2 111.7L424.2 79 11.7-24.2z"/><path fill="#13489b" d="M424.2.8l-29.7 118.7L2.3-13.3z"/><path fill="#081203" d="M-24.2 193L424.2 88.3l-53.1 201.5z"/><path fill="#3b5c76" d="M154 154L-24.3 96l390.6-6.2z"/><path fill="#111a11" d="M274.2 263.3L-24.2 78.9-.8 290z"/><path fill="#a4a28c" d="M157 88.3L-7 14.8l-17.2 84.4z"/><path fill="#2e4f74" d="M397.7-24.2L19.5 10.2 424.2 121z"/><path fill="#191f1f" d="M152.3 88.3l-82.8 26.5 178.2-1.5z"/><path fill="#767f7d" d="M-13.3-24.2l43.8 137.5L143 139.8z"/><path fill="#1e2318" d="M-24.2 289.8L218 191.4-10.2 96.1z"/><path fill="#46666d" d="M393 54l31.2 59.3L189.8 96z"/><path fill="#343b1d" d="M96 289.8l65.7-140.6-139 31.3z"/><path fill="#3c3a1c" d="M424.2 193l-250 96.8 61-84.3z"/><path fill="#1c3e75" d="M413.3-24.2L396 72.7 124.2 16.4z"/><path fill="#0f1606" d="M366.4 105.5L260.2 239.8 268 118z"/><path fill="#59748a" d="M30.5-24.2l-54.7 48.4 200 75z"/><path fill="#abaa8f" d="M-24.2 41.4l100 39-82.8 8z"/><path fill="#0e1212" d="M66.4 141.4l-75 148.4L7 96.1z"/><path fill="#353731" d="M127.3 94.5L114.8 118l-68.7-9.4z"/><path fill="#7a9293" d="M60.2 110.2l43.7 20.3-45.3-6.3z"/></g></svg>