<svg xmlns="http://www.w3.org/2000/svg" viewBox="0 0 400 267"><rect width="100%" height="100%" fill="#553926"/><g fill-opacity=".5"><path fill="#3e7ba3" d="M324.2 185.2l100-209.4-448.4 39z"/><path fill="#000707" d="M10.2 113.3l-34.4 176.5 448.4-42.1z"/><path fill="#6a8e8f" d="M-24.2 14.8l14 106.3 240.7 18.7z"/><path fill="#1e1c0f" d="M389.8 289.8l34.4-137.5-448.4-21.8z"/><path fill="#857954" d="M424.2 147.7l-9.4-89.1L85.2 107z"/><path fill="#2f5680" d="M-21 93l445.2-70.3L7-24.3z"/><path fill="#4d4f50" d="M100.8 111.7l321.9 18.8-192.2 42.2z"/><path fill="#8c4e2d" d="M119.5 193l-54.7 48.4 1.6-76.6z"/><path fill="#4f7384" d="M424.2 105.5V3.9L264.8 82z"/><path fill="#5a300b" d="M355.5 160.2L207 225.8l-9.3-62.5z"/><path fill="#0c1310" d="M-8.6 260.2l371.9 29.6-39-92.1z"/><path fill="#9c7845" d="M250.8 114.8L391.4 82l18.8 39z"/><path fill="#886236" d="M61.7 96l-86 29.8 190.7-1.6z"/><path fill="#11130d" d="M424.2 144.5l-150 76.6 56.3-70.3z"/><path fill="#141716" d="M-24.2 172.7l129.7-50 117.2 46.8z"/><path fill="#ab7956" d="M172.7 243l-14.1-14 7.8-14.2z"/><path fill="#38516f" d="M-5.5-2.3L424.2-.8l-118.7 86z"/><path fill="#cf5a29" d="M66.4 197.7v31.2l23.4-25z"/><path fill="#070f11" d="M99.2 189.8l-32.8-12.5 57.8 73.5z"/><path fill="#705b40" d="M32 129l140.7-43.8 150 37.5z"/></g></svg>