<svg xmlns="http://www.w3.org/2000/svg" viewBox="0 0 400 267"><defs/><rect width="100%" height="100%" fill="#2f3c48"/><g fill-opacity=".5"><path fill="#5ca9ff" d="M424.2 2.3L-5.5-24.2l376.6 287.5z"/><path fill="#989274" d="M4 289.8L-24.3-18l268.7 181.3z"/><path fill="#5f9ed2" d="M379 61.7l-261 82.8 306.2 47z"/><path fill="#4f5442" d="M424.2 244.5l-448.4 42.2 275-136z"/><path fill="#e7f5fb" d="M69.5 54l-11 75 26.7 48.3z"/><path fill="#463f34" d="M24.2.8l159.4 209.4-43.8-151.6z"/><path fill="#3f4f63" d="M375.8 266.4L143 171.1l279.7 9.4z"/><path fill="#40420a" d="M18 172.7l48.4 117.1 132.8-18.7z"/><path fill="#3771be" d="M119.5-24.2l47 173.4 257.7-65.6z"/><path fill="#918771" d="M46 183.6l98.5-56.3L157 232z"/><path d="M22.7 54l-47-9.5 47 34.4z"/><path fill="#050d15" d="M111.7 154L89.8 41.3 79 99.2z"/><path fill="#75828c" d="M238.3 214.8l25-37.5 28.1 112.5z"/><path fill="#0c222f" d="M277.3 239.8l147-4.6-98.5 54.6z"/><path fill="#84b2c9" d="M294.5 180.5l-76.5-50 206.2 36z"/><path fill="#549bd1" d="M280.5 119.5l-131.3-11 61 64.2z"/><path fill="#a09473" d="M-8.6 132l6.3 156.3L33.6 246z"/><path fill="#2f5eab" d="M-24.2-21l184.4 82.7L424.2 7z"/><path fill="#202c34" d="M144.5 143l115.7 146.8-45.4-114z"/><path fill="#bdc5c6" d="M82 105.5l-7.8 57.8-15.6-111z"/></g></svg>