<svg xmlns="http://www.w3.org/2000/svg" viewBox="0 0 400 267"><defs/><rect width="100%" height="100%" fill="#4e4634"/><g fill-opacity=".5"><path fill="#1180f0" d="M46 247.7L424.3 35.2-24.2-24.2z"/><path fill="#a2a5b0" d="M-24.2 111.7l448.4-21.9-287.5 115.7z"/><path fill="#0048b4" d="M416.4 139.8L-24.2 8.6l421.9-32.8z"/><path fill="#5d5048" d="M-8.6 289.8l432.8-164-429.7 28.1z"/><path fill="#004c97" d="M424.2 5.5L2.3-24.2l-26.5 164z"/><path fill="#132831" d="M424.2 150.8l-298.4 57.8 259.4 81.2z"/><path fill="#4287c5" d="M413.3 43l7.8 125-165.6-34.4z"/><path fill="#ccc6b6" d="M332 125.8l-170.3-1.6 114-34.4z"/><path fill="#3a8fd7" d="M-8.6 75.8l250 18.7L-.8 143z"/><path fill="#d0c5b5" d="M32 152.3l57.8-51.5 78.2 23.4z"/><path fill="#004b93" d="M396-24.2L-24.1 3.9l448.4 117.2z"/><path fill="#5c523a" d="M-14.8 122.7l231.2 115.6-240.6 40.6z"/><path fill="#0663af" d="M182 119.5L-24.2 71.1l284.4-17.2z"/><path fill="#4a4d60" d="M110.2 211.7l314-34.4-54.7-67.1z"/><path fill="#0067c1" d="M411.7-4l-6.2 117.3-136-25z"/><path fill="#7f7c7e" d="M10.2 169.5l312.5-3-95.4-64.2z"/><path fill="#00407b" d="M11.7-24.2l309.4 43.7-345.3 42.2z"/><path fill="#ada89f" d="M307 118l75-1.6-54.7-15.6z"/><path fill="#43433d" d="M161.7 166.4L13.3 218l190.6 25z"/><path fill="#1e2b2e" d="M183.6 219.5l107.8 70.3-36-128z"/></g></svg>