<svg xmlns="http://www.w3.org/2000/svg" viewBox="0 0 400 267"><defs/><rect width="100%" height="100%" fill="#384b25"/><g fill-opacity=".5"><path fill="#85d1ff" d="M424.2 166.4L297.7-24.2l-322 162.5z"/><path fill="#3e7fff" d="M5.5-24.2L424.2 21-24.2 171z"/><path fill="#7fadff" d="M424.2 27.3L-24.2 141.4l440.6 18.8z"/><path fill="#2155c5" d="M-24.2 22.7l448.4 103-28.1-150z"/><path fill="#86b3e8" d="M394.5 149.2L-2.3 33.6l-22 112.5z"/><path fill="#1e3700" d="M-24.2 289.8l329.7-39L3.9 149.2z"/><path fill="#b5a19d" d="M272.7 207l53 68.8 67.3 14z"/><path fill="#427bd0" d="M424.2 110.2l-448.4-9.4 28.1-125z"/><path fill="#000801" d="M225.8 172.7l198.4 57.8-31.2-54.7z"/><path fill="#2a55ab" d="M-13.3 2.3L424.2-21l-61 103z"/><path fill="#a8c4d7" d="M393 127.3l-268.8-3 129.7 39z"/><path fill="#395600" d="M318 199.2L97.7 141.4l10.9 148.4z"/><path fill="#192f00" d="M-19.5 155.5l154.7-7.8L8.6 289.8z"/><path fill="#254164" d="M274.2 163.3l150 31.2V154z"/><path fill="#9dc2d4" d="M141.4 133.6l-164 21.9 9.3-42.2z"/><path fill="#78774c" d="M391.4 289.8l-153.1-90.6L344.5 229z"/><path fill="#243b0e" d="M193 158.6l184.3 100-96.8-98.4z"/><path fill="#162500" d="M-24.2 208.6l193.7 39-156.2 42.2z"/><path fill="#3e5608" d="M-24.2 185.2l357.8 104.6-109.4-106.2z"/><path fill="#699ad6" d="M402.3 135.2l17.2-51.6-204.7 25z"/></g></svg>