<svg xmlns="http://www.w3.org/2000/svg" viewBox="0 0 400 267"><rect width="100%" height="100%" fill="#5e4e29"/><g fill-opacity=".5"><path fill="#fff" d="M424.2 272.7l-448.4-261 421.9-36z"/><path fill="#fff" d="M424.2 86.7l-414-111-34.4 132.9z"/><path fill="#dbf7ff" d="M424.2 216.4l-1.5-231.2-443.8 14z"/><path fill="#00142b" d="M169.5 86.7l-181.2 139 337.5-12.4z"/><path fill="#a1bbdc" d="M408.6 194.5L386.7 279l-203.1-40.6z"/><path fill="#fff" d="M-13.3 89.8l159.4 25-170.3-125z"/><path fill="#dfe9e9" d="M260.2 180.5l164-62.5L141.4-24.2z"/><path fill="#061228" d="M144.5 194.5l-168.7-11 70.3-92z"/><path fill="#0c1321" d="M179 166.4L372.6 193l-175 31.2z"/><path fill="#fafffa" d="M188.3 79L-24.2 39.7l139 76.6z"/><path fill="#454736" d="M-24.2 213.3l175-118.8 90.6 57.8z"/><path fill="#6189d3" d="M27.3 33.6L143 8.6 19.5 2.3z"/><path fill="#aeb5ba" d="M261.7 211.7l146.9 25-167.2 28.1z"/><path fill="#fafdff" d="M336.7 47.7l-48.4-72L132 10.3z"/><path fill="#5781d8" d="M346 46l-62.4 28.2 140.6-14z"/><path fill="#4a5151" d="M139.8 289.8l-164-48.4L291.4 204z"/><path fill="#151816" d="M211.7 243L182 89.8l68.8 73.5z"/><path fill="#cde0e1" d="M133.6-18l232.8 207.8L257 172.7z"/><path fill="#f2faf5" d="M-22.7 18l20.4 95.3 118.7-51.6z"/><path fill="#75868f" d="M424.2 235.2l-34.4-45.4-98.4 32.9z"/></g></svg>