<svg xmlns="http://www.w3.org/2000/svg" viewBox="0 0 400 267"><rect width="100%" height="100%" fill="#334b6b"/><g fill-opacity=".5"><path fill="#a5deff" d="M-24.2 7L221 189.8l201.6-214z"/><path fill="#cce0f1" d="M221 138.3l-245.2-34.4 12.5-128.1z"/><path fill="#181e00" d="M4 289.8l420.2-31.2-434.4-131.3z"/><path fill="#6d674c" d="M424.2 68l-11 187.5L169.6 171z"/><path fill="#213a51" d="M407 239.8L-24.2 179l173.4-54.7z"/><path fill="#89aec0" d="M349.2 119.5L66.4 93l182.8 70.3z"/><path fill="#5086d6" d="M330.5-24.2L18 63.3l325 36z"/><path fill="#d2c3a5" d="M364.8 210.2l50-76.6-23.4 92.2z"/><path fill="#353d3c" d="M321 216.4l87.6-153.1L357-24.2z"/><path fill="#aebad4" d="M-24.2 5.5l218.7-29.7L11.7 103.9z"/><path fill="#373908" d="M199.2 269.5L-13.3 179l-11 101.6z"/><path fill="#aa9d8b" d="M357 100.8l-46.8 6.2-12.5 56.3z"/><path fill="#6599d5" d="M236.7-14.8L74.2 18l-9.4 109.3z"/><path fill="#2d3726" d="M363.3 113.3l61-67.2-98.5 9.4z"/><path fill="#3f433d" d="M279 110.2l-22 101.5 125 34.4z"/><path fill="#2d425f" d="M71 205.5l108-11-200-114z"/><path fill="#517ac3" d="M221 72.7l108-97L380.4 43z"/><path fill="#00000d" d="M-24.2 160.2L18 275.8l29.7-26.6z"/><path fill="#5e96cb" d="M350.8 91.4l-86-65.6-160.9 111z"/><path fill="#fff9e2" d="M30.5 7l-54.7 4.7 90.6 21.9z"/></g></svg>