<svg xmlns="http://www.w3.org/2000/svg" viewBox="0 0 400 267"><defs/><rect width="100%" height="100%" fill="#2e3a54"/><g fill-opacity=".5"><path fill="#ffffe0" d="M424.2-24.2L-24.2 8.6l350 246.9z"/><path fill="#fff3c6" d="M7-24.2L424.2 99.2l-448.4 28.1z"/><path d="M250.8 202.3l-111-78 184.4-4.8z"/><path fill="#a28472" d="M424.2 260.2l-68.7-115.7-189 84.4z"/><path fill="#e2c2af" d="M252.3-24.2l172 111L-24.3 118z"/><path fill="#a4cdf3" d="M-24.2 93L.8-24.2 424.2 3.9z"/><path fill="#ffb75c" d="M85.2 146l114-3-112.5 37.5z"/><path fill="#ddb388" d="M393 14.8L424.2 118l-414-6.3z"/><path fill="#202833" d="M372.7 116.4l51.5 90.6-128.1-92.2z"/><path fill="#1b1f13" d="M333.6 260.2L11.7 202.3l-20.3 87.5z"/><path fill="#f8c378" d="M-24.2 113.3l265.6 3.1-251.6-71.9z"/><path fill="#e3a879" d="M410.2 208.6L261.7 196l48.5-64z"/><path fill="#506073" d="M424.2 260.2l-84.4-62.5L157 232z"/><path d="M258.6 246l1.6 43.8 164-31.2z"/><path fill="#152135" d="M182 121l137.5 11-92.2 72z"/><path fill="#2c2a22" d="M-18 193l4.7-78.2 139 29.7z"/><path fill="#ae8462" d="M100.8 155.5l75 26.5-159.4-3z"/><path fill="#8eaedc" d="M424.2-24.2L127.3 5.5l256.3 42.2z"/><path fill="#dec294" d="M274.2 160.2l75 35.9 1.6-62.5z"/><path fill="#051725" d="M379 125.8h-25V196z"/></g></svg>