<svg xmlns="http://www.w3.org/2000/svg" viewBox="0 0 400 267"><defs/><rect width="100%" height="100%" fill="#56543f"/><g fill-opacity=".5"><path fill="#d3dad8" d="M-24.2 263.3L158.6-24.2l265.6 289z"/><path fill="#a9ccf8" d="M7-24.2L-24.2 78.9l307.8-64z"/><path fill="#685421" d="M418 180.5L5.5 99.2 375.8-24.2z"/><path fill="#ddd5c4" d="M424.2 152.3L50.8 289.8l-75-132.8z"/><path fill="#6e8fb0" d="M-24.2 224.2l436-57.8 12.4 123.4z"/><path fill="#cfd4dd" d="M193 30.5l51.5-54.7 7.8 96.9z"/><path fill="#455653" d="M268 61.7L44.5 168-22.7 41.4z"/><path fill="#fce9c3" d="M194.5 130.5l-48.4 86-170.3-28.2z"/><path fill="#5f4d2a" d="M199.2 175.8l-68.7 43.7 143.7-21.8z"/><path fill="#9f6c31" d="M229 154l195.2 12.4-56.2-114z"/><path fill="#232a08" d="M332-24.2l-92.2 40.6 184.4 67.2z"/><path fill="#fff1c1" d="M118 186.7l207.8-12.5L171 139.8z"/><path fill="#ecd7b6" d="M191.4 289.8l6.3-84.3-109.4 36z"/><path fill="#547aa3" d="M152.3 218l-176.5 39L-4 204z"/><path fill="#ebe6d7" d="M-24.2 150.8L71 169.5l-95.3 54.7z"/><path fill="#d2d0bc" d="M257 211.7l18.8-53.1 148.4 15.6z"/><path fill="#8ba2b8" d="M77.3 71l231.3-95.2L-24.2 5.5z"/><path fill="#000002" d="M235.2 143l29.6-3.2-42.1-25z"/><path fill="#f6a35d" d="M424.2 111.7l-62.5 40.6 26.6-57.8z"/><path fill="#8a7f5f" d="M54 169.5l25-89 60.8 89z"/></g></svg>