<svg xmlns="http://www.w3.org/2000/svg" viewBox="0 0 300 225"><rect width="100%" height="100%" fill="#4b3136"/><g fill-opacity=".5"><path fill="#9ff5ff" d="m-18.2 5.3 336.4-23.5-44.6 261.4z"/><path fill="#85b3e6" d="M318.2-14.6-18.2-.6l80.9 243.8z"/><path fill="#5d6b5d" d="m58 79.1 260.2 144.1-336.4 3.6z"/><path fill="#cef7ff" d="m7.6-18.2 117.2 98.5-143 11.7z"/><path d="m204.5 93.2 57.4 60.9 15.2-78.5z"/><path fill="#24291d" d="M182.2 131.8 10 90.8l-28.2 92.6z"/><path fill="#757c7e" d="m-18.2 222 320 21.2 16.4-139.5z"/><path fill="#5689db" d="m66.2 61.5 252 22.3-25.8-102z"/><path fill="#aee9ff" d="M318.2 135.4h-61L310 83.8z"/><path fill="#a5c7fc" d="m211.5 133-111.3-28 110.2-36.3z"/><path fill="#a6c7ec" d="m-13.5-18.2-4.7 118.4L181.1 8.8z"/><path fill="#0d251d" d="m286.5 116.6-78.5 5.9L226.8 72z"/><path fill="#e8f3ef" d="m115.4 175.2-29.3 49.2-37.5 15.2z"/><path fill="#6e6b68" d="m299.4 144.7 9.4 88L17 106z"/><path fill="#f8ffff" d="m249 208 27 35.2-54-39.9z"/><path fill="#9acaf9" d="m247.9 52.1 66.7 66.8-4.6-78.5z"/><path fill="#000711" d="m240.8 145.9 61 7 9.3-17.5z"/><path fill="#000106" d="m95.5 151.8-102-2.4-11.7 36.3z"/><path fill="#18302e" d="m290 95.5-57.4-21 13 59.7z"/><path fill="#5480bc" d="M174-17 146 85 318.2 6.4z"/></g></svg>