<svg xmlns="http://www.w3.org/2000/svg" viewBox="0 0 400 267"><defs/><rect width="100%" height="100%" fill="#2a3648"/><g fill-opacity=".5"><path fill="#a4cbdf" d="M424.2 79l-448.4-3.2 75-100z"/><path fill="#5180b2" d="M400.8 99.2l-425-96.9 426.5-26.5z"/><path fill="#190b00" d="M424.2 91.4L102.3 289.8l322-31.2z"/><path fill="#9b7c43" d="M229 232l34.3-71.8-220.3 50z"/><path fill="#181e19" d="M10.2 289.8L136.7 74.2l-161 1.6z"/><path fill="#4f4a36" d="M-24.2 133.6l448.4-50-140.6 111z"/><path fill="#919b9b" d="M-14.8 72.7L282 60.2-24.2-8.6z"/><path fill="#2b2005" d="M46 275.8L-24.1 207l301.5 29.7z"/><path fill="#26508e" d="M10.2 27.3l340.6-4.6-171.9-47z"/><path fill="#658ca6" d="M424.2 38.3l-25 48.4-178.1-67.2z"/><path fill="#1b1d18" d="M64.8 147.7l220.4-7.9-186 59.4z"/><path fill="#1c1c06" d="M122.7 289.8l300-32.8 1.5-157.8z"/><path fill="#7a776f" d="M282 104l59.4 25-140.6-8z"/><path fill="#04192d" d="M-24.2 64.8l32.8 57.9L213.3 93z"/><path fill="#9e8f75" d="M147.7 221l39-32.7L118 193z"/><path fill="#38301a" d="M354 138.3L322.6 207l-145.4 9.4z"/><path fill="#555857" d="M61.7 163.3L182 114.8H50.8z"/><path fill="#61563c" d="M168 218l-92.2 25 46.9 21.8z"/><path fill="#517a91" d="M371 88.3L210.3 75.8l214-51.6z"/><path fill="#0a4496" d="M408.6 38.3L271-.7 424.2-7z"/></g></svg>