<svg xmlns="http://www.w3.org/2000/svg" viewBox="0 0 400 267"><defs/><rect width="100%" height="100%" fill="#304528"/><g fill-opacity=".5"><path fill="#fff" d="M394.5-24.2L-24.2 47.7l448.4 142.1z"/><path fill="#cfe9ff" d="M11.7-24.2l-36 171.9 448.5-56.3z"/><path fill="#86b3ff" d="M424.2 125.8l-3.1-150-445.3 34.4z"/><path d="M410.2 139.8l-11 50L229 127.3z"/><path fill="#adbad9" d="M-24.2 94.5l239-118.7L204 152.3z"/><path fill="#fffac8" d="M424.2 66.4V129l-236-18.7z"/><path fill="#dbe6db" d="M-5.5 55.5l209.4 53-223.4 11z"/><path fill="#593b40" d="M-13.3 118l-6.2 54.7 204.7-53.2z"/><path fill="#709fdf" d="M-24.2 83.6l448.4-23.4-189-68.8z"/><path fill="#051500" d="M393 289.8L86.7 260.2l329.7-56.3z"/><path fill="#232d24" d="M318 121L21 196l403.2 6.3z"/><path fill="#b18e77" d="M180.5 88.3l78 39L118 143z"/><path fill="#071500" d="M16.4 289.8l157.8-48.4-198.4-26.6z"/><path fill="#7e6e79" d="M66.4 219.5l81.3 26.6 81.2-23.4z"/><path fill="#5d7ad5" d="M189.8-5.5l-214 57.8 15.6-76.5z"/><path fill="#fdf0ff" d="M36.7 30.5l96.9 7.8-146.9 31.2z"/><path fill="#957f96" d="M88.3 227.3l-107.8-15.6 56.2-7.8z"/><path fill="#cf9566" d="M408.6 114.8L382 147.7l-117.2-28.2z"/><path fill="#756970" d="M241.4 224.2L400.8 193l-70.3 37.5z"/><path fill="#1b2921" d="M-24.2 205.5l331.2 7.8-278-84.4z"/></g></svg>