<svg xmlns="http://www.w3.org/2000/svg" viewBox="0 0 400 267"><defs/><rect width="100%" height="100%" fill="#503e33"/><g fill-opacity=".5"><path fill="#befbff" d="M-24.2-24.2l112.5 314 336-275z"/><path fill="#aed2d5" d="M386.7 205.5l-411-176.6 448.5-53.1z"/><path fill="#5e5051" d="M91.4 289.8l-115.6-175 448.4 51.6z"/><path fill="#c1dbd9" d="M-21 50.8L139.7 57l-164 114z"/><path fill="#77787c" d="M-24.2 91.4l351.5 171.9-6.2-165.6z"/><path fill="#252b16" d="M186.7 289.8L357 219.5l-381.2 22z"/><path fill="#c5d9ce" d="M110.2 64.8l314 40.7V22.7z"/><path fill="#4e5e74" d="M-24.2 227.3V114.8l262.5 70.4z"/><path fill="#846349" d="M54 238.3l370.2-37.5-125-56.3z"/><path fill="#fdf5da" d="M-24.2 75.8L78.9 47.7 182 77.3z"/><path fill="#0a1f00" d="M419.5 197.7L318 219.5l76.5 65.7z"/><path fill="#7eb4bd" d="M285.2 68L18 4 424.2-7z"/><path fill="#7297a5" d="M314.8 97.7L13.3 163.3l-26.6-82.8z"/><path fill="#c0b3a0" d="M424.2 124.2l-162.5 12.5 65.6-32.8z"/><path fill="#72614a" d="M407 199.2l-195.3 39L402.3 132z"/><path fill="#ab8427" d="M288.3 254l40.6-25 14 40.5z"/><path fill="#95868b" d="M421 143l-289-34.4 62.5 68.7z"/><path fill="#2d819c" d="M222.7 88.3l-73.5 20.3 148.5 1.6z"/><path fill="#43596d" d="M188.3 154l-12.5 56.2-200-28.2z"/><path fill="#353323" d="M104 289.8l57.7-75-184.4 50z"/></g></svg>