<svg xmlns="http://www.w3.org/2000/svg" viewBox="0 0 400 267"><rect width="100%" height="100%" fill="#493d2b"/><g fill-opacity=".5"><path fill="#dfffff" d="M-24.2 121L383.6-24.1l40.6 207.8z"/><path fill="#9bcaff" d="M32 216.4L424.2 8.6-24.2-24.2z"/><path fill="#b9d6fa" d="M63.3 2.3l361-17.1-48.5 184.3z"/><path fill="#0444aa" d="M-24.2 96L16.4-24.1l179.7 126.5z"/><path fill="#795d35" d="M300.8 229L-2.3 272.6l17.1-148.5z"/><path fill="#03201f" d="M332 247.7l-165.6-82.9 257.8-3z"/><path fill="#8ab8d8" d="M64.8 154L424.2 11.6l-39 153.1z"/><path fill="#d1dae5" d="M289.8 4L146.1 68 91.4-22.7z"/><path fill="#cd976d" d="M211.7 222.7l53.1-7.9-7.8 75z"/><path fill="#d9e0df" d="M121 114.8l129.8 20.4 114-47z"/><path fill="#101411" d="M118 227.3l-22-75-42 73.5z"/><path fill="#c7d2db" d="M175.8 124.2l-200-36 57.8 51.6z"/><path fill="#fefede" d="M-24.2 235.2l107.8 54.6L-4 274.2z"/><path fill="#775e42" d="M-24.2 129L171 232l3.1-65.6z"/><path fill="#2c4d96" d="M108.6 14.8l-96.9-39-36 106.2z"/><path fill="#272012" d="M61.7 168l-28.1-23.5-57.8 87.5z"/><path fill="#080000" d="M168 289.8l-9.4-59.3 82.8 15.6z"/><path fill="#567fbb" d="M333.6 41.4l90.6 7.8L352.3 93z"/><path fill="#5282b3" d="M122.7 58.6l-147 51.6L254 96z"/><path fill="#b7884f" d="M114.8 219.5l43.8-18.7L157 268z"/></g></svg>