<svg xmlns="http://www.w3.org/2000/svg" viewBox="0 0 400 267"><defs/><rect width="100%" height="100%" fill="#393d27"/><g fill-opacity=".5"><path fill="#c9ffff" d="M424.2 44.5L-24.2 157 5.5-24.2z"/><path fill="#8ca3d0" d="M399.2-24.2l14 300L-24.1 19.5z"/><path d="M33.6 289.8L182 141.4-24.2 118z"/><path fill="#845f35" d="M424.2 214.8L193 105.5l-50 184.3z"/><path fill="#b3d3f4" d="M-24.2 32l7.8 86 301.6-4.7z"/><path fill="#000100" d="M335.2 200.8l-50 89-36-76.5z"/><path fill="#558bc2" d="M49.2 69.5l62.5-93.7 264 150z"/><path fill="#cd8360" d="M139.8 289.8L271.1 254l-98.4-48.4z"/><path fill="#ddc2ae" d="M293 286.7l100-59.4 29.7 42.2z"/><path fill="#5d503d" d="M249.2 188.3L46.1 119.5l303.1 4.7z"/><path fill="#aab5c5" d="M216.4 49.2l207.8 37.5L368-10.2z"/><path fill="#181b06" d="M424.2 146L321.1 255.6l87.5-50z"/><path fill="#3267a8" d="M227.3-24.2l4.7 90.6-92.2-11z"/><path fill="#897a5a" d="M149.2 152.3l275 17.2-182.8 42.2z"/><path d="M218 246l-6.3-64 26.6 47z"/><path fill="#6d8fa6" d="M299.2 43l-200 84.3 320.3-21.8z"/><path fill="#fff" d="M279 47.7l-42.3-28.2-6.2 39z"/><path fill="#0a0f0f" d="M10.2 289.8l-34.4-134.3 86-36z"/><path fill="#799dcf" d="M-24.2-7l334.4-1.6-247 71.9z"/><path fill="#011a00" d="M308.6 188.3l29.7 40.6-89 4.7z"/></g></svg>