<svg xmlns="http://www.w3.org/2000/svg" viewBox="0 0 400 267"><defs/><rect width="100%" height="100%" fill="#5b5a37"/><g fill-opacity=".5"><path fill="#83a0e8" d="M-24.2 7l386 282.8 62.4-314z"/><path fill="#75adff" d="M-10.2-24.2l300 23.4-314 140.6z"/><path fill="#514705" d="M54 158.6l370.2 17.2L282 88.3z"/><path fill="#d8b297" d="M424.2 221l-179.7-71.8-36 96.9z"/><path fill="#346ce0" d="M400.8-24.2L75.8 5.5l337.5 100z"/><path fill="#393f07" d="M424.2 283.6l-153.1-31.3 11-59.3z"/><path fill="#9dbeff" d="M-24.2 108.6l114-14-78-118.8z"/><path fill="#ffe5e7" d="M335.2 227.3l89 1.6-32.8-50z"/><path fill="#9b8965" d="M44.5 133.6l131.3-95.3 248.4 90.6z"/><path fill="#1d2211" d="M4 289.8L-4 157l159.5 73.5z"/><path fill="#e4c9c4" d="M244.5 160.2l112.5 4.6-139 43.8z"/><path fill="#282f11" d="M343 214.8l-6.3-65.6 64-4.7z"/><path fill="#243019" d="M230.5 133.6l-17.2 106.2-98.5-25z"/><path fill="#cfc7b2" d="M149.2 105.5L157 43l59.4 54.7z"/><path fill="#3d4320" d="M107 121l61 51.7L338.3 146z"/><path fill="#000735" d="M277.3 235.2l4.7-47 32.8 40.7z"/><path fill="#4676ca" d="M424.2 74.2l-175 7.8-48.4-106.2z"/><path fill="#ddb4a6" d="M225.8 229l4.7-62.6L349.2 179z"/><path fill="#776952" d="M116.4 150.8L-24.2 118 157 82z"/><path fill="#6c702f" d="M389.8 289.8l-175-45.3L388.3 229z"/></g></svg>