<?xml version="1.0" standalone="no"?>
<!DOCTYPE svg PUBLIC "-//W3C//DTD SVG 20010904//EN"
 "http://www.w3.org/TR/2001/REC-SVG-20010904/DTD/svg10.dtd">
<svg version="1.0" xmlns="http://www.w3.org/2000/svg"
 width="500.000000pt" height="500.000000pt" viewBox="0 0 500.000000 500.000000"
 preserveAspectRatio="xMidYMid meet">
<metadata>
Created by potrace 1.11, written by Peter Selinger 2001-2013
</metadata>
<g transform="translate(0.000000,500.000000) scale(0.100000,-0.100000)"
fill="#000000" stroke="none">
<path d="M3337 4288 c-115 -17 -319 -69 -497 -128 -219 -73 -483 -139 -612
-153 -95 -11 -111 -46 -59 -128 61 -97 148 -155 268 -180 l62 -13 -20 -30
c-29 -45 -238 -393 -267 -446 -13 -25 -41 -74 -62 -110 -115 -202 -256 -474
-425 -820 -153 -314 -319 -732 -364 -915 -30 -121 -35 -157 -34 -260 1 -129
43 -238 108 -281 24 -16 27 -15 44 0 10 9 27 38 36 64 22 57 212 503 250 587
15 33 60 128 99 210 40 83 83 174 96 202 14 29 27 53 30 53 12 0 51 -42 194
-210 171 -201 579 -725 690 -888 53 -78 85 -77 125 4 33 64 39 168 17 267 -36
162 -186 411 -457 759 -60 76 -109 143 -109 149 0 5 8 9 18 9 24 0 246 69 367
115 137 51 399 180 520 256 278 174 484 360 614 554 73 108 138 250 159 345
26 119 29 139 29 230 2 181 -42 349 -127 490 -141 234 -354 317 -693 268z
m424 -375 c51 -23 94 -72 115 -130 22 -63 13 -215 -18 -301 -116 -322 -465
-656 -923 -883 -71 -36 -155 -74 -185 -86 -30 -12 -68 -28 -85 -34 -16 -7 -32
-13 -35 -14 -3 0 -54 -17 -115 -37 -148 -48 -203 -65 -248 -72 -21 -4 -46 -10
-55 -13 -15 -6 -9 9 46 102 124 213 379 668 423 755 90 179 143 336 153 454 3
33 8 61 10 64 7 6 397 138 486 164 200 58 346 68 431 31z"/>
</g>
</svg>
