<?xml version="1.0" standalone="no"?>
<!DOCTYPE svg PUBLIC "-//W3C//DTD SVG 20010904//EN"
 "http://www.w3.org/TR/2001/REC-SVG-20010904/DTD/svg10.dtd">
<svg version="1.0" xmlns="http://www.w3.org/2000/svg"
 width="320.000000pt" height="320.000000pt" viewBox="0 0 320.000000 320.000000"
 preserveAspectRatio="xMidYMid meet">
<metadata>
Created by potrace 1.11, written by Peter Selinger 2001-2013
</metadata>
<g transform="translate(0.000000,320.000000) scale(0.100000,-0.100000)"
fill="#000000" stroke="none">
<path d="M1310 1700 l0 -1210 870 0 870 0 0 1210 0 1210 -870 0 -870 0 0
-1210z m423 706 c-1 -215 -4 -412 -6 -438 -5 -53 3 -60 26 -25 62 95 218 189
354 214 69 13 226 7 288 -9 168 -46 306 -149 410 -308 104 -158 145 -348 123
-559 -26 -243 -151 -450 -348 -578 -182 -118 -427 -132 -625 -38 -79 38 -149
92 -190 147 -16 21 -32 38 -36 38 -3 0 -7 -30 -7 -67 0 -38 0 -83 -1 -100 l-1
-33 -130 0 c-117 0 -130 2 -131 18 0 9 -1 492 -2 1074 l-2 1056 140 0 140 0
-2 -392z"/>
<path d="M2093 1904 c-175 -36 -317 -186 -356 -375 -17 -79 -15 -234 3 -304
92 -354 484 -488 747 -255 121 107 175 255 167 454 -12 323 -267 541 -561 480z"/>
<path d="M914 2144 c-122 -25 -245 -104 -305 -196 -22 -34 -41 -64 -44 -66 -2
-2 -4 45 -3 104 0 60 0 115 -1 122 -1 10 -31 12 -133 10 l-131 -3 1 -720 c0
-396 1 -726 1 -732 1 -10 35 -13 136 -13 74 0 136 3 136 8 1 4 2 198 3 432 1
234 6 445 10 470 22 116 115 237 223 288 50 23 71 27 153 27 52 0 106 -2 119
-5 22 -5 28 3 76 121 l53 127 -23 10 c-58 27 -184 34 -271 16z"/>
</g>
</svg>
