<?xml version="1.0" standalone="no"?>
<!DOCTYPE svg PUBLIC "-//W3C//DTD SVG 20010904//EN"
 "http://www.w3.org/TR/2001/REC-SVG-20010904/DTD/svg10.dtd">
<svg version="1.0" xmlns="http://www.w3.org/2000/svg"
 width="400.000000pt" height="400.000000pt" viewBox="0 0 400.000000 400.000000"
 preserveAspectRatio="xMidYMid meet">
<metadata>
Created by potrace 1.11, written by Peter Selinger 2001-2013
</metadata>
<g transform="translate(0.000000,400.000000) scale(0.100000,-0.100000)"
fill="#000000" stroke="none">
<path d="M0 2000 l0 -2000 2000 0 2000 0 0 2000 0 2000 -2000 0 -2000 0 0
-2000z m2155 905 c0 -225 -3 -462 -7 -527 l-7 -116 87 87 c147 148 305 211
528 211 225 0 395 -73 563 -243 185 -188 272 -409 272 -692 0 -135 -17 -251
-50 -347 -86 -251 -299 -474 -528 -553 -141 -49 -327 -57 -468 -19 -134 36
-280 128 -352 224 -21 27 -41 49 -45 49 -5 1 -8 -53 -8 -119 l0 -120 -160 0
-160 0 0 1290 0 1290 168 -2 167 -3 0 -410z m-627 -380 c28 -9 52 -19 52 -23
0 -4 -27 -75 -61 -159 l-60 -151 -37 11 c-20 6 -80 11 -132 10 -74 0 -108 -5
-152 -22 -123 -48 -230 -154 -280 -280 -23 -56 -23 -60 -26 -613 l-3 -558
-169 0 -170 0 0 885 0 885 160 0 159 0 3 -147 3 -148 24 45 c67 128 211 232
381 276 68 17 233 12 308 -11z"/>
<path d="M2605 2250 c-151 -23 -319 -149 -389 -293 -56 -114 -70 -182 -70
-337 0 -151 14 -220 67 -330 43 -90 159 -206 247 -247 276 -130 598 -16 728
258 55 116 67 172 66 324 0 199 -46 331 -154 449 -130 141 -308 204 -495 176z"/>
</g>
</svg>
