<svg xmlns="http://www.w3.org/2000/svg" viewBox="0 250 1100 351" transform="rotate(180)">
	<path d="M556 620h2l-3 1 1-1zm5 0h0zm-52-9c-1-1 3-1 3-1 1 1-1 2-2 1h-1zm-62-9l-3-1h16l-2 1h-11zm176 6h3l-3 1c-2 0-2 0 0-1zm-130-10v-1c1-1 1-2-1-2-3 0-5-1-3-2l1-1c0-1 1-2 2 0h-1l4 2 4-1h4l4 1 3 1 1 1h6s0-1 0 0h13l7 1 5-1h6l10-2h29l-1 1-2 1c1 1 0 1-1 1h-8l-6 1h-4l-1-1h-2l-2 1h-3l-1 1h-30l-21-1h-5l-1-1h-3c-1 2-1 2-3 1zm135 9l1-1h1l-1 1h-1zm-147-11h-5l-3-1h1l1-1h-3v1l-2-2c-1 0-1 0 0 0h6l5 2 2 1 1 1-3-1zm4 1l1-1h1l2 1h-4zm-73-8h3l-1 1-2-1zm37 3c0-2 0-2 1-1v1h-1zm14 1l2-1-1 1h-1zm3 0v-1h1l1 1h1l-2 1-1-1zm108 6h1l-1 1v-1zm-124-9v-1l2 1-1 1-1-1zm-72-5v-1h1l2 1c0-1 1 0 0 0h-3zm53 3l-1-2h1l3 1a155 155 0 0 1 6 1h-3l-2 1h-2l-2-1zm40 3h-1 4l-1 1-2-1zm-10-1l1-1 1 1-1 1-1-1zm14 1v-1l1 1h-1zm-116-8l-4-2c-4 0-6 0-5-1h9l5 1 3 1h-2l-2 1h-4zm33 2l1-1v1h-1zm128 8l3-1c3 0 2 1-2 1h-1zm-234-18l-3-2v-2l4 1-1 1v1h2c1 0 2 1 1 2l-3-1zm4 1h1v1l-1-1zm151 10v-1l1 1h-1zm-60-4h0zm37 2c-2-1-1-2 2-1h3l1-1c1 2-3 3-6 2zm21 1c1-1 0-1 0 0l-1-1h2l-1 1c0 1 0 0 0 0zm24 2l-3-1-2-1c-2 1-1-1 2-2h4l-2 1c-2 2-1 2 2 1h2l1 2c1 1 1 1 0 0h-4zm127 8h-1c-1 0-1-3 1-3s3 0 2 2c-1 1-1 1 2 1h0-4zm6 0c0-2 2-4 4-3l2 1h8l-4 1-6 1c-3 2-4 2-4 0zm-217-15h1v1l-1-1zm28 2c1 0 2 0 1 1l-1-1zm48 4v-1c0-1 2 0 1 1h-1zm32 2c-1-1-1-1 1-1v1h-1zm-113-8l-1-1h3l1 1h-3zm94 5l1-1 1 1-1 1-1-1zm-79-6c-1-1 1-1 3-1s2 0 1 1h-4zm48 2h-3l-2-1h3l5 2-3-1zm-126-9l-4-2-3-1-2-1h-2l-2-1-4-1v-2l1-1 4 1h3l3 1-1 1c-2 0-1 1 2 2l2 1h1l1 1h1l4 3-4-1zm314 21c-1 0 0 0 0 0h2l-1 1-1-1zm-179-13h0zm-117-9v-1h-3v-4h-5l-4-2-1-1-1-2h2c3 0 3-1 0-2l-2-2h-3l-3-1-4-1-5-2-2-2-5-2-2-1h-3l-2-1h-2l2 2-8-1-2-1h-1c0-1-5-3-6-2h-3l-1-1v-2l-1-3c-1-1-2-2-8-3 1-1-2-2-3-2-1 1-2 0-4-1l-3-1-2-1-6-2-5-3-3-1h-2l-2-1c-2 1-5-1-5-2h-1v-1l-4-2-5-2h-7l-2-2-3-1h-3c-2 0-2 2 0 3h1l4 1-1-1c-1 0-1 0 0 0 1-1 3 1 3 2l1 1h1l3 1h5l4 1-1 1c-1 1-1 1 2 2h1l1-1h1l-1 1 5 4 2 1h1l1 1 8 2 2 2-4-1-6-2-5-1v1l-2-1v-1l-2-1v-1l-1-1c-4 0-7-1-11-3l-8-4-1-1-2-1-6-2h-2c-1 0-1 0 0 0l1 1-2 1h-2l-2-1-1-1c-2 0-3 0-2-1l-1-1h1l2 1h3v-1l-1-1h3l3 1c3 1 4-1 1-3l-3-2-3-1c-3-1-5-1-5 1 0 0 0 1 0 0-2 0-2 0-1 1l-1 1-1-1h-1v-1l1-2v-1c2-1 1-2-2-3l-2-1c2 0 1-1-1-3s-7-3-8-3h-1l-5-2h-1l1 1c3 1 2 2-2 1h-10l2 2c1 1 3 3 5 3l4 2 3 1 2 1h1l-2-2-2-1h3l7 3 2 2-1 1h-1c2 1 0 1-2 1l-3-1c-1-2-7-1-8 0s-1 1 1 1l2 1 1 1h2l-2 1-1-1h-6l-2-2c0-2 1-3 2-3l1-1h1v-1l-3-1c-4 0-5 0-4-1l-3-3-2-1-4-3-3-4h2c1-1 1-1-2-2l-4-1v-1l3-1h2l2 1h2c0-2-4-5-5-4 0 0-1 0 0 0l-4-2v3l1 1h-1l-2 1h-3l-5-4c0-2 1-2 4-1 4 1 4 1 4-1s0-3 2-4l1-2-1-1-3-1-7-4-1-1c-2 0-2-1-1-3 1-1 0-1-2-1l-2-1c-1-2-3-1-2 0h-1l-6-1h-3c1 2-1 1-5-1l-6-3c-2 0-2-1 0-1l-2-1c-2-1-3-1-2-2l4 1 2 1 3 2 3 1c2 0 2-2 1-3-2-1-1-2 2-2h1l-1-1 3-1 3 1 1 1 2 1-1 1h-1l1 1 6 4 3 1 2 1h5c1-1 1-1-1-1l-2-1c1-1 0-2-1-2-2 0-5-3-6-5 0-2-3-4-5-4l-2-1-3-1-1-1h3l3 1h1l3 2 3 1 4 1 4 2c2 1 3 2 0 2h-2l2 1 3 3 3 1c3 2 4 2 4 1l1-1 4-1 2 1v1h6l4 1 3-2 2-1-1-2 2-2h1l-1-1-4-3h-9l-1 2-3-2-1-1v-1l-2-2-3-2h1l-1-1v-2l1-1c1-1 1-1-1-1-2-1-2-2-1-2h2c0-1 0-1 0 0h2l2 1h1v-1h1l2-1h-1l-2-1v-1l-5-2c-4-3-5-3-6-2l-2 1c0-1-2-1-3 1h-4l-1-1c1-1 0-1-2-2l-2-1c0-2 0-2-3-3h-2l-1-1c-2-1-2-1 0-1s3-1 1-1l-1-1-2-1v-1l-1-1h-2l-2-1-1-1 1-1h1l3 1-1-1h1v-1c-2-1-1-2 1-1s2 0 1-1v-1h1l2-1-1-1-1-2 2-1h3l2 1v1h-1l1 1 2 1 1-2v-2c-1-1-1-1 1-1 3 1 5 0 3-1-2 0-1-1 1-2s2-1 1-2l-4-4v-3h-3l-6-3c-2 0-3-1-2-2l-3-1c-2 0-2-1-1-1h2l6 3 3 1 2 2 6 1 1-1h2l1-1h6l5 2c2 1 2 1 2-1l-1-1v-1l-2-1h-2v-1l-2-2-3-2v-1l2-1v-2l-1-1c-3 0-4-1-3-2 1-2 1-2-2-2l-3-2v-1h2l-1-3c-2-2-4-3-13-4l-8-2h-1l-1-1h6c4 0 5 0 4-1s0-1 2-1l7 2 2 2h-5l9 2c-2-1-3-2-2-3v-1l-3-1-3-3-9-3-3-2-3-1 2-1 3-1 13 1 4 1h2v-2l3-1 2-2h-3l1 1c-2 0-2-1 0-2h3l2-1-1-1h-2v-1h2l1-1h5c2-1 7 0 6 1l2 2h4l2-1v2c1 0 2-1 1-2l1-1v-2h1l1 1 2-1c1-1 1-1-1-1h-5c-1-1-1-1 0 0v2h-6l-4-1-2-1c-1-1-1-1 1-1h4l-2-2 2-2h2l-2-1c-2-2-1-3 2-3l2 1 2 2 2-1h2l1-1-1-2v-1h-1l-1-1v-4l3-1-1-1c-1-1-2-1-1-2l2 1c2 1 2 1 2-1v-4l1 1v1h1c0-2 2-3 5-3l3-1h2v2l6 7c-1 1 0 1 1 2v-6l-2-1h-1 1l2-4c2 0 4-2 3-2l-2-1c-1-1-2-1-1-2h1c2 0 2-2 0-3-2 0-2-2 0-2l2 1 3 1 5-1c2-4 2-4 5-3l3 1v-2l-1-1 5-2c2 0 3 0 3-2l2-1h1l1 1 2-1h-1l1-1 2-1 3-1c5-2 5-1 1 3l-2 3-1 1c-1 0-2 1-1 2v1l-1 1v3c2 2 7 1 6-1l1-1h1l-1 4h-3l-2 1-1-1-2-1v-1l-2-1h-1l1 3v5h-1c-1 1-1 1 1 2h2l-2 1c-1 1-1 1 1 1l2-2v-4h2l1-1c1-1 1 1 1 3s1 3 2 3v-1l2-1 3-1c0-2 2-3 3-3h1l-1-1h-1v-1c-1-1-2-3 0-3v-1h2l1-1-1-2 2 1 2 2c1 0 2 1 1 2v2l-1 1 2-1 2 1c3 2 3 2 4 0s0-3-2-3h-1l1-1 4-2v3l1 3 3-3 1 1 2 1 5-1 1-1 2-1 8-8 3-4 2-1 1-1v-1c1-1 2-1 1-2l6-6c2-1 2-2 3-1l-2 4a77 77 0 0 0-9 11l-2 3c-1-1-2 0-4 1-1 2-3 6-1 5h3l1 2h1l-1 1h-2l-1 1h-4l-1 1c-1 1 2 2 3 1l2 1-1 2 1 1 3-1h3c-2 1 0 1 2 2l3-1h1c1 0 2-1 0-2v-2h3v2l-1 1 1 1 2-1v-2l3-1c2 0 2 2 0 2l-2 1-1 1-4 2v1h2l3-1 2-1v-2l2-1v1l2 2c3 1 3 2 2 3l-1 2v1h4l2 1 2 2v-3h-1l-4-2v-3l6-3-1 1v1h2l3-1c2 0 1 2-1 2h-2l-2 1h-1v1l1 1 2 1c2 0 2 0 1 1-1 2-1 2 1 1l2 2 1-1c-1 0-1 0 0 0l1 1-1 1 1 2v2l-1 1h3c2-1 5 0 5 1l1 2h2l2 1 1-1 2 1 1-3v-1h1l-2-1c-2 0-2 0-2-2l2-2v-5l1 2c0 4 0 5 2 5l2-1 1-1 4-3c-1-1 1-2 3-2l1-1h1c2 0 2 0 1 1-2 3-2 6 1 5v-1l1-2c2 0 3 0 3 2h1c0-2 2-2 2 0 1 1 0 1-1 1-2 0-3 1-3 2l-1 1-2 1-1-2h-1l-1 1v2c-1 1-1 1 0 0l6 2 1 2 1-1v-2c-2-1-2-2 0-2l2 1v-1l1 1-1 1v3l1 1v3c-1 1-1 2-2 1-2 0-3 1-1 2l4 2 1 1h1l1 1h3l2 2v2h-1l-2-1v1c2 1 2 1 1 2v2c2 0 2 1 0 1-1 0-2 2-1 3v3l1 2 1 1h4c-1-1 0-1 1-1l2-1c1-1 2 0 2 1l4 1 4-1h13l1-1 2 1 4 4-5 2c-4 1-3 2 0 2 6 1 6 1 3 2h-3v2c3 1 12 2 13 1l4 1-1 1c-3 0-3 1 1 1s5 1 1 1l-2 1 6-1h1l2 1-5 2 12 1h4l6 1h10a96 96 0 0 0 24-1h12l2 1-3 1h-4l9 1a353 353 0 0 0 31 3l2 1c3 0 3 0 1-1-1-1-1-1 2-1h5l6-1h6l4-1 6-1c-3 0-1-1 3-1l8-1h4l-1 1-2 1h-3l-11 2-2 1h-1l-1 1h-1c-1-1-6-2-7-1h-3l-2 1 7 1 8-1h2l5 1h5l3-1h3l4-1 2 2h1v-1h1c1 1 2 0 2-1 0-2 0-2 3-1l6-1h5l3-1c1-1 2 0 1 1s0 2 1 0h1v3l1 1 1 2c1-1 4-2 5-1s7-1 5-2l1-1h4l2-1h3l3-1c3-2 4-2 5-1l1 1 3-1h1l3-1h4l3-3 7-3 2-1 1 1-1 1 1 1 2-1 3-1 2-2 4-2 1-1h1l1-1 2-1h3l2-1h-3l-3-1h10l1-1h11l4-1h3l3-2a174 174 0 0 1 8-7l2-2h1l2-2 6-3-6 6-2 1-1 1-3 2-1 2 2-1c2-1 2-2 3-1l-1 2h2v-1l2-1 1-1 2-1 3 1h1c1-1 3-4 5-4 1-1 2 0 1 1-1 2 1 2 3 2h5v3c0 1 2 1 5-2l6-3 2-2 3-1 7-4 7-5 3-2 3-1 1 2c-1 0 0 0 0 0h1l2-1 3-1h2v1l-2 1v1c0 1 3 1 4-1l5-3 2-1h3l-3 1-3 2-1 1h1c0 1 2 2 3 1h3l1-1h2l2-1h3l2-1h1l2-1 5-3 4-1 1-1 7-4 6-2 2-1 2-2 2-1 2-3 3-2c-1 2 1 2 2 1l2-1c1 1 2 1 1 2l1 2v-1l5-1-1 1-3 6s-1 1 0 0l1 1h4c2 0 2 0 1 1-1 2 0 2 4-1l5-2 4-2c2-2 2-3 4-2l1 1-3 3-4 5h-1v1l-3 4-1 2-2 1-5 3 1 1v-1l2-1 3-1h2l2 1 2 3 3 2h8l1-1 1 1c1 1 7-2 6-3h-1l1-1h6l1-2v-2h4v4c-1 2 1 1 2 0l2-2v3l-1 3c0 2 2 2 5 1l3-1-1-2 4-1 2-2v-1l6-3 5-2h1c2-1 2 0 0 2-1 1-1 2 1 2h2l-2 2-1 2 1-1 3-1 2-1 3-2 5-5 2-1 3-1c2 0 1-1-1-1l3-1 8-2 1-1 2-1c1-2 3-2 2 0v2l3-1h4l1-1c1-2 9-4 8-1l1 2c0 2 0 2-5 2l-4 1-2 1h2l3 1 2-1h3l2 1 3 1c3 0 3 1 3 2 0 2 0 2 5 2l6 1 2-1c1 0 2 0 1-2l1-1v-1l-3 1-7 1-1-2 1-3 2-2h-6v-1l3-1c2 0 5-1 4-2l2-1 3-2 4-1h3l3-1-1 2c1 1-1 2-4 2l-5 1 2 1-1 1-1 2-4 2c-3 1-1 2 4 2h8c0-1 2-2 6-1 2 0 3 1 1 1s-2 2 0 2l1 1h-1l-1 1 1 1 2 1 4 1h4c2 0 4 0 3 1l1 1h-4c-6 0-7 0-10 2s-5 2-6 1l1-2c1-1 1-1-2-1l-4 1h-2l-4 2s-5 4-4 5h-1l-3 1h2c1 0 1 1-1 2l-3 1h-3l-2 1h1c1-1 1 1-1 2v1c1 0-2 2-4 1l-4 1h2l1 1h1v1h3c0 1 1 2 3 2h3l-1 1-1 2-2 1h2c1 0 3 1 2 2l3 1h3l2-2 4-1 3-1h1l1 1-2 2-6 4h1c1 1 1 1-1 1l-2 2c1 1 3 1 5-1l2-1 9-3 7-1c-1 2-5 4-7 4l-2 1 1 2 7-3h3c2 0 1 1-2 2l-2 2-2 3h-2l-2 1-3 1a1409 1409 0 0 1 3 1 146 146 0 0 0 26-2h-2c-1-1-1-1 1-1l1 1c1 1 2 2 3 1h2v3l-2 1-3 1c-1 2-5 2-10 1h-9v1l-4 2-4 3v1l1 1h2c2-1 4-3 3-4l4-2 1 1h-1v3l-4 2-1 1c0-1 0-1 0 0l-1 3-1 1c2 1 6 0 7-2l6-1v1l3-2 2-2c2 0 4 0 3-1s0-1 1-1l3-1h1l-1 2-2 1-1 1c1 1 1 2-1 2l-3 1c-2 1-2 2-2 3l-1 1-2 1v1a45 45 0 0 1 4 0c2 0 0 1-2 2l-6 2c-3 1-3 1-1 2h10l1 1a341 341 0 0 0-1 5l1 1 5 2 4 2 2 2c-1 1 0 3 1 3s2 1 1 2c0 0-3-1-2-2h-7l-3 2c-2 1-3 2-7 1-3-1-3-1-5 1l-2 2v4l-1-1h-2l-2-1h-4c-4 0-9 2-10 3h17c1 2 0 2-3 2l-2 1v1l-1 1 4 1h3v1c1 0 1 1-1 3l-6 3c1 2 1 2-2 1l-4-1h-1l-1-1-2-1c-2 0-2 0-1 1v3l-4 1h-7c1 0 1 1-1 2h4c1-1 2 1 0 1v2h-2l1 1c1 1 2 2 3 1 2 0 2 1 1 1v2h-1l-1 1-1 3v1l-1 1h-1l2 1h8l1 1c0 1-5 3-7 2l-2 1h-1v1l1 1c-1 1-1 1 1 1l2-1 3-1 8-1c2 0 3-1 1-1v-2h3c3 1 4 2 3 4l-4 1h-5l-3 1-2 2h1l1 1c-2 1-2 2-1 2l1 1v1l1-1 4 1s-5 3-6 2l-10 1c-1 1-1 1 1 1a1371 1371 0 0 0-9 2h-1 1l-6 2h-4l-6-1h-25l-1 2 1 1h1l-3 1c-2 0-4 2-1 3h-1l-2 1h-2l4 2 1 1h2l4 1h11v2h6l2 1c0 1-2 3-4 3h-4l-6 1h-7a1580 1580 0 0 1-8 3l1 2h-4c-4 0-5 0-8 2l-4 1-4 2c0 1-1 2-3 2-4 1-5 2-3 2l4-1h2l3-1h9l-1 1c0-1 0 0 0 0l-1 1v1s0 1 0 0l-5 5c-2 1-4 2-2 3l-1 2-1 1 1-1 2-1 9-5 7-3c3-1 3-1 2-3-1 0-1-1 0 0l7-2h4s0 1 0 0l-2 1-1 1-6 2v2l-1 1c0 1-1 2-3 2l-7 4-10 4-4 2-3 1-4 2a165 165 0 0 0-8 3l-2 1h-2c0 1-3 2-7 2h-3c-1 1-5-1-5-1h-4l-7 1-5 1 5 1h2l-2 1h-3l-5 1-7 2-5 1h-28c-17-1-21-1-21 1l-1-1h-2l-5 1-4 1c-2 1-2 2-1 3h0l-3 1c0 1-1 0 0 0v-2c-2 0-3 1-3 2v1h-1 1l2 2-1 1c-1 0-1 0 0 0v1c0 1-5 2-6 1l-2-1h-1c0-1-3-3-5-3l-1-1h-2l-2-1v-1l-4-4c1-1 0-2-2-3l-2 1-3 1-2 1-1 3h-2l-2 1h-2c-2 2-3 1-3 0 0-2 1-3 2-2l2 1v-2l-2-1-3-1-4 2h-3l-4-2h-4l-2-1h-1c3 0 1-2-3-2l-4-1h-5l-1 1h-1v2l7 2h6l1 1 2 1h5v-1l1-1c2 0 2 3 0 4v3h-1l-6 1-4 2-2-2v-2h-8c1-1-1-1-2-1-2 1-3 0-2-1h0-3l-1-1c-1-1-5-3-5-1h-10l1 1h2l2 2c2 2 1 2-1 1-1-1-3-2-7-2-6-1-7 0-7 2s0 2-5 0l-3-1c1-1-2-3-2-2h-1v2c1 1 0 1-1 1-2-1-3-2-1-2v-2c-1-2-2-3-3 0v2l-2 1h-2l3 1c3 1 3 1-1 1h-5l-2-1v-1l-8-1h-4l-1 1h1c2 1 2 1 0 2h1c2 1 2 1 1 2l-1 1-4-1 1-1-2-1-3-1h2c2 0 4 0 3-1 1-1-1-2-6-2l-5 1h6l-4 1c-2 0-1 2 0 2 2 0 4 3 3 3-1 1-6-1-10-2-4-2-8-3-9-2h-1l1-1-2-1-1-1h1v-1h-4l-2-2-2 1-4 1-3 1-1 2-1 1h2l-3 2v-1l-1-1c-1-1-3-2-3 0l-2 1-9 1c-1 1-2 0-1-1l6-2h2l1-1h-1l-1-1h2v-1l-5 1c-1 1-3 1-5-1h-3l-1 1h-2l1-1h-1l-4 1h1l1 1 1 2-1 1h-2l-4 1-2 1-1-1-2-1h-4c-1 0-2 0-1-1l-2-1-9 2h-2l-2 1c0 1 0 1 0 0h-9l-3-1 5-1 6-1-2-1v-3h4l-1 1v2h1v2l5-1v-1s0-1 0 0v-2l1-2h3v1l-1 2c1 1 4 1 6-1 2-1 3-2 6-1v-1l-2-1v-3l-3 1h-1v1c-2-1-3 0-3 2l-1-1c1-2-1-2-4 0l-3 2c2 0 1 1-1 1v-3h-11l-3 1-10 2-4 1h-1v4l-1-1-2-1-8 2a55 55 0 0 0-10 0v-1h-4l-4-1-5-1-9 1h-7l6-1c2 0 2-1 1-1l-4-1-5-1-7-1c-5-1-6-1-5-2l-1-1v1h-1v-1l1-1-2-2-1 1c0 1 0 2-2 1l-3 1-1 2v-3h-2l-4 1-2 1v1l1 1c2 0 2 0 0 1h-11l-2 1h-1c-1 0-1 1 3 1h4l1-1v1l5 1a79 79 0 0 1 6 2h-17l-6 1h-1l-5-1-4-1h-1a53 53 0 0 1-21-3 245 245 0 0 0-17-4h-3l3 2 5 3 1 2 2 1h-2l-2-2-7-2-6 1-5-1c0-2-3-2-7-2h-2l2 1 3 1 2 1-1 1 2 1 2 3h-2zm7-9l-1-1-2-1c-3-1-3-1-2 1l3 1h2zm39 0l1 1c2 1 6 0 6-1l2-1 2 1 1 1h1c-1 1 0 1 1 1h3v-2h2c1 1 4 2 5 1l-3-2-3-1-1-1v-1l-1-1-2 1h-2l-1 1v-2l-3-1c-3-1-3 0-4 1h-4l-5 1 4-2c0-2-7-2-7-1l-1 1-1-1c1-1-1-1-2 1l-4 1-3-1-2-1c-1 1-1 2 1 2h2l-2 1c-2 2-2 2 1 2h8c-2 1 0 2 4 2l5 1 2-1zm3-1h1l-1 1v-1zm-9-2h1v1h-1v-1zm-39 0l-2-1 1 1h1zm20 0v-2c-1-2-3-3-5-3l2 2v2l3 1zm54 3h-1l1 1v-1zm73 3h2l5-2h-1l-6 1c-6 0-8 2-3 1h3zm-160-11h-2 2zm80 5v-1h-3c-2 0-2 0-1 1h4zm58 3h-2l1 1 1-1zm13 1l1-1h-1l-2 1h2zm-25-3v-1l-2 1c-1 1 0 2 2 0zm14 2h-1c-1 0 0 0 0 0h1zm5 0v-2c0 2-1 2-2 2h-1 3zm-99-8h-1l-1 1h1l1-1zm14 1h-2l1 1 1-1zm103 6h-2l1 1c0 1 2 0 1-1zm61 5c-1 0-1 0 0 0h0zm5 0l-2-1 1 1h1zm-110-8l-2-1-2 1h4zm54 3h-4l2 1 2-1zm-209-14h1l-5-3h-2l2 1 1 1 2 1h1zm290 19v-2s-2 2-1 3l1-1zm32 2h-1 1zm-52-5h-1l1 1v-1zm8 0v1h1c2-1 2-1 1-2h-2l-2 1h-2v1l4-1zm37 2l-3 1h2l1-1zm-97-6l-2-1c-1 1 0 1 1 1h1zm68 4l3-3h-5l-1 1h-1 1l2 2h1zm87 4l-4-2v1l2 1h2zm-78-8h0-2c-1-1-3 0-2 1h2l2-1zm36 4l2-1-8-1-5-1h-3l2 1 3 1 4 1h5zm-55-4l-1-1h-2l1 1h2zm64 4l-1-1-1 1h2zm20-1l-1-2c-1 0-2 0-1 1l-2 1c-3-1-2 1 1 2 2 1 3 0 3-2zm-81-3v-1h-1v1h1zm201 12v-1l-1 1v1l1-1zm-196-13h-3 3zm192 12h-2l1 1 1-1zm-178-12l-1-1s-1 0 0 0v1h1zm87 5h1c2 0 1-1-1-2h-3v2h3zm-7-2h-2l2 1v-1zm94 7l-3-3h2l1 1h1c2 0 1-1-1-2l-2-2-1 2c0 2 0 5 2 5l1-1zm-500-38h-1l1 2c0 1 0 1 0 0v-2zm-6 0c1-2 0-3-2-2l-1-1c-1-2-3-2-2-1l1 1v1l1 1 2 1h1zm512 33l-1-1-1 1 1 1 1-1zm-521-51l-5-2v1l5 1zm-7-3l-4-2v1c0 1 1 2 3 2s2 0 1-1zm-22-4h1l-4-1-5-2h-3l3 2 4 1 2 1 2-1zm31 2h-2l1 1 1-1zm615 40l10-2 8-2 2-1 3-1 3-2c1-1-1-2-1-1h-2l1-1 4-1v1c-1 1-1 1 1 1 6 0 8-2 3-3-3-1-5-1-11 1l-5 2v3l-7 1-5 1h-3l-2 1-1 1-4 2h6zm28 1l3-1h1l3-2 6-3c2-1 2-1 1-2-1 0-7 2-9 4l-5 2-6 3h2l4-1zm-677-45l-3-3-4-2c-1-1-4-2-4 0 0 1 4 3 6 2l1 1 4 2zm13-1c0-2-1-2-4-3l-5-2h-2l-4-2h-1v2h2l1 1c1 0 2 2 1 3l1 1h1l1-1h1l1 1 6 1c1 1 2 1 1-1zm15 3h-1c-1 0 0 0 0 0h1zm-41-5h-1 1zm-4-1h-1l1 1v-1zm650 44l-1-1-2 1h3zm-686-49l-2-1h-1l2 1h1zm69 5l-1-1v1h1zm636 42l-1 1 1-1zm-661-45h1v-1c-1-3-3-4-4-4l-2-1-1-1v-1a129 129 0 0 1-5 0l-8-3-7-3c-2 0-3-1-1-1v-1l-1-1c-1 0-2-2-1-3h2l-3-3-7-2-2 1h-3l-2 1c-2 1-2 2 0 2l3 1v4c4 3 11 6 15 7h3l2 1 4 3 2 3h7c7 1 9 1 7 2h-1 2zm-32-16h0zm-4-4l-1-3h1l1 2c1 1 0 2-1 1zm-4 16l-3-1 3 1zm680 46h-1l1 1v-1zm32 1v-1 1zm-700-49l-4-3v2c-1 0 0 0 0 0l2 1 3 1-1-1zm25-1l-1-1v1h1zm-62-5l-1-1h-2l-2-1 2 1c2 2 3 2 3 1zm15 0l-2-2 2 2zm40 2v-1l-3-1c-2 0-1 1 1 2h2zm679 45l1-1c0 1 0 0 0 0h-6c-1 0-1 1 1 1h1l2 1 1-1zm32 3h-1v1l1-1zm-51-4h1l2-1h7c5-1 6-2 2-2h-7l-2 1h-2l-2 1-5 1h6zm-665-47l-1-1s-1 0 0 0 0-2-3-3l-4-1-1-1 3 3v1l6 3v-1zm718 49c4-1 4-2 0-2l-8 2h8zm-29-3c0-1 0-1 0 0h1l3-1h4l1-1-2-1h1l1-1c1 1 1 1 1-1-1-1-2-2-1 0l-2 1-1 1h-1l-3 1c-3 0-4 1-4 2h2zm-16-4h-2c-1 0-1 1 1 1l1-1zm29-2h0zm-735-50l2-1c1-1 2-2 0-3-3-2-4-4-4-6 0-1-3-2-5-1v2h1v4h-1v1h2l2 1 1 1v1l1 1h1zm-19-4l-2-2c-3-2-4-2-2 0l4 2zm7-3l-1-2v-1l-1-1-4 1c1 1 0 1-1 1h-1l6 2 2 2v-2zm701 48h2l3-1h2l1-2h-2l-3 1h-9l1 1 5 1zm-688-49h-1c-1 0 0 0 0 0h1zm703 48c2 0 2-1 1-1h-4l-2 2 2-1h3zm-684-48l-2-1h-2l1 1 2 1 1-1zm692 46h-2c-1 0-1 0 0 0h2zm-750-53h-2 2zm32 2h-1l1 1v-1zm800 54h-4 4zm-777-54h-3 3zm696 46h-1 1zm54 2l1-1h-4c0 2 1 3 3 3v-2zm-809-54h-1c-1 0 0 0 0 0h1zm806 53h-1v1l1-1zm-38-3h-1c-1 0 0 0 0 0h1zm8-1h0l-3-1-2 1h-1l2 1h1l3-1zm4-1h-2 2zm-729-52l2-1 2-2h-1l1-1c0 1 0 1 0 0h-1l-6 2 1 2h2zm-11-3l1-2v-1l-1-1-1 1v1h-2l-1-1v2l3 1h1zm6-5h-1v1l1-1zm7 1v-1 1zm-12-2v-1l-1 1h1zm815 55l-1-1-1 1h2zm-25-3l1 1 1-1h7l2 1h10c5-1 3-1-4-1l-9-2h-7c-4 1-6 1-5 2h4zm9-2h-1 1zm9-1h-3c-3 0-2 0 1 1 3 0 3-1 2-1zm2-1h-1 1zm-817-62h-1l1 1v-1zm-17-2v-2l-3-1h-6l2 1h2l1 1h-1l2 1h3zm0-4l-2-1 1 1 2 1-1-1zm842 55h1l2-1h-2l-1-1-3 2h3zm-837-61h-1v-1h-4l2 1h3zm7 0l-1-1-2 1h3zm-5-2h-1l1 1v-1zm-13-2l-1 1c-1 0-1 0 0 0l1-1zm18 2h-1v1l1-1zm-6-1l-1-1h-2l2 1h1zm844 56h-1l1 1v-1zm-4-4l-2-2v-1h1l-2-2-1 1v2c-1 1 0 2 1 2h2l1 1v-1zm3-1l-1 1 1-1zm-819-64v-1l-1-1-1 2h2zm-16-4h-5l1 1 4-1zm11 2l-2-1v1h2zm9-3h-2l1 1 1-1zm-11-5h-1c-1 0-1 0 0 0h1zm839 56l-1-1v1c-1 0 0 0 0 0h1zm-838-60c-1-2-5-2-6-1-2 1-1 1 3 1h3zm6 0h-2 2zm6 0l-1 1h1v-1zm811 53h-1c-1 0-1 1 0 0h1zm-832-59l-1-1h-1l1 1h1zm847 53c1-1 1-1-1-1-3 0-3 0-2 1h3zm-845-58c1-1-1-2-3-2-1 0-1 1 1 2h2zm874 58h1l-2-1-1 1h2zm-878-60l-1-1v1h1zm881 59h-1l-1 1h1l1-1zm-24-6h1c0 1 0 1 0 0l2-1h-4l-1 3c1 0 2 0 2-2zm-479-32h-3l2 1 1-1zm-9-2h-2 2zm-35-3h-1c-1 0 0 0 0 0h1zm540 36h-1v1l1-1zm-611-45h-2l1 1 1-1zm175 11h-4 4zm31 2h-2l1 1 1-1zm406 27h-2l1 1 1-1zm-426-29h-1c-1 0-1 0 0 0h1zm-460-34c1-1 1-1-2-2h-4c-1 1 1 2 5 3l1-1zm856 56l1-2h-3l-2 2h4zm-863-59l-2-1-1 1h3zm262 16l3 1 4-1h-3l-5-1c-2-1-4-1-3 1l2 1 2-1zm611 42v-1c1 0 3-1 2-2h-3c-6 1-7 2-2 3h3zm-627-46l-1-1-1 1h2zm-220-17h-2l2 1v-1zm44 2v-1c-1 0-2 0-1 1h1zm-20-2l-1-1v1h1zm810 55l-1-1v1h1zm-788-56v-1h1l-2-2-2 1v1l4 2-1-1zm806 55h-2l1 1 1-1zm-4-1h-1v-2l-2 1-1 1 1-1h1c0 1 0 2 2 2v-1zm-648-46c0-2-2-2-2 0-1 1 0 2 1 1l1-1zm641 45l3-2 6-3c1 0 2 0 2-2l-3-2-3 1h-2l-1 1h-1c0 1-6 3-8 2l-1 1-2 1c-2 0-2 1-1 1l5 1h2l1 1h3zm-632-44v-1l-2 1h2zm-202-15h-1 1zm512 34l1-1-2 1c-2 1-1 2 1 0zm-316-23l-1-1-1 1h1v2l1-2zm632 43l-1-1v1h1zm-818-57h-2 2zm8 1c1 0 1-1-1-2-1-1-3 0-3 1l1 1h3zm-3-1l1-1v1h-1zm8 1l-2-1v1h2zm3 0h-2l2 1v-1zm504 33h-2v1l2-1zm-482-33l-1-2c0 1 0 0 0 0l-2-2-2-1-1 1h-1c-4 0-2 1 1 2 3 0 4 0 4 2h2zm154 10h-1l1 1v-1zm-28-3l-2-1h-1l1 2h1l1-1zm636 44l-1 1h1v-1zm-776-53v-4l-1-1v-1c2 0 1-1-1-1-2-1-3 1-1 1l1 1h-4c-3-1-3 0 0 2l3 1 1 1 2 1zm27 1v-1l-2 1h2zm-43-4l-1-1c-1 0-2 1-1 2l2-1zm157 10v-1l-1 1s0 1 0 0h1zm12 1h-1l1 1v-1zm8-1l-1 1h1v-1zm-172-11l-1-1-1 1h2zm33 3l-1-1 1 1zm-39-6h-3v1h4c1-1 1-1-1-1zm29 3c0-2-2-2-3-1v1l2 1h1v-1zm119 9v-1l-1 1h1zm4-1l-1-1-1 2c1 1 2 0 2-1zm-114-8v-1l-1 1h1zm7 0v-3l-1-3v-2h-2v-2h-2v7l1 2 3 2 1-1zm-2-3h1l-1 1v-1zm131 12c2 0 3-1 3-2h-5c-2 1-2 3-1 2h3zm-148-11l1-1v-1h-2l-1 1 2 1zm29 2v-1l-1-2v-1l-1 3c0 1 1 2 2 1zm-32-3l-1-1v1h1zm75 5l-4-2 1 1h-1v1h4zm26 2v-1h-2v1h2zm-111-9l-1-2v-5l-2-3c-2-2-3-1-2 1h-1l-1 1h-1l-1-1-4 2 2 2 4-1h4l-1 2-1 1v2l4 1h1zm144 9h-1l1 1v-1zm5 0h-3l2 1 1-1zm-140-11v-1l-1 1 1 2v-2zm81 7l-1-4-1 2-1 1 1 1h2zm23 1v-1l-2 1h2zm21 1l-3-1c-1 1 1 2 2 2l1-1zm662 45v-1h-2c-2 0-2 1-1 2l3-1zm-784-54v-1h-1c-1 0-1 0 0 0v2c-1 0-1 0 0 0l1-1zm99 6h-1v1l1-1zm23 1h0zm-55-4h-4 4zm-64-5h-1c-1 0-1 0 0 0h1zm28 2v-1l-1 1h1zm-27-4h3l1-1 3-1 2-2v-5l-1-1 1-1v-1l1-1 1 1c1 2 2 1 2 0l-1-2 1-2v-2l1-2-2 2-5 2c-3 1-4 2-3 3v1c-2 0-3 1-3 2l-1 2c-1 1-1 2 1 3 3 1 3 2 0 2-2-1-2-1-2 1h-1c-2 0-3 0-2 2l2 1 2-1zm6-8l1-1v1l1 1-2-1zm60 12v-1l1 2-1-1zm10 1v-4h-2l-2 1-2-1c-1 0-1 0 0 0l2-1 1-1-1-3-5 2v1l1 3 3 1h1c0 2 0 2 2 2h2zm-5-6v-1l1 1h-1zm39 7l-2-1h-1l3 1zm-50-5l1-1c1 0 1-1-1-1l-1 1 1 2v-1zm-30-4h-2l-1 1h1l2-1zm11 0h-3l-2 1h3l3 1-1-2zm41 3v-1 1zm486 31l1-1-1 1zm-512-35v-1h1v-1h-2c-1 0-2 0-1 2h2zm-22-2v-1l-1 2 1-1zm524 35l3-2c1-1 1-1 0 0v1l1-2h-1l-4 3c-2 2-1 1 1 0zm22 2l1-1 2-1-1-1h-1l-2 3h1zm-515-36h-2l1 1 1-1zm32 2l-2-2v-1l-1 2 1 2 2-1zm-58-5h-1v1l1-1zm29 2l-2-1c0-2-1-2-1 0l2 1h1zm-8-2l-1-2h-1v2c-1 0-1 1 1 1l1-1zm511 35l1-1-1 1zm7-1h-2v1l2-1zm-523-36l2-1c0-2-2-2-3 0h-1l-3 1-2 1h3l4-1zm-16-2h-2 2zm722 48v-3l-3 2c-1 1 2 1 3 1zm-697-49l-1-1-2 1h3zm8-1l-1-1h-1c1 2 2 2 2 1zm693 42l-1 1h1v-1zm-4 0v-2c-1-1-2-1-2 1l2 1zm-128-11l1-1-2 1-1 2 2-2zm112 6l-2-1v1h2zm12-7v-1h-2l1 1h1zM681 595l3-3h5v-1l1-1h1l1 2-1 1h-1 1l3-1h2l1-1c0-1 1-2 3-1s1 2-2 3l-8 1h-4l-2 2c-3 0-4 0-3-1zm-311-22h2c1 1 1 1-1 1l-1-1zm59 4l1-1 2 1h-3zm6 0h1v1l-1-1zm47 3h2l-1 1-1-1zm138 9h1l-1 1v-1zm53 4v-1 1c0 1 0 0 0 0zm-319-23l-1-1 1 1h2l1 1h-1l-2-1zm43 2l-1-1c-2 0-2 0-1-1h1c-1 1 0 1 1 1h2l1 1v-2l3 3h-3l-3-1zm223 16h0zm59 4l-1-1h1l2 1h-2zm-235-17h3l-2 1-1-1zm-158-12l-1-1-2-1s-1 0 0 0l-2 1-2-1h1l2-1h9v2l-1 1h-4zm5 0l1-1 1 1c1 1 0 1-1 1l-1-1zm130 9l-2-1h2l3 1h-3zm70 3l4 1h-3c-2 0-2 0-1-1zm-57-4h2l-2 1v-1zm182 12v-1l1 1-1 1v-1zm-187-13l-1-1h-1l1-1c1 0 2 1 1 2 0 1 0 1 0 0zm-151-12h-3l-11-3-8-4c-1-1-1-1 2-1h3l2 1h2v-1h2l3 3 3 1 1 1 2 1 3 1 2 1v1l-3-1zm259 18h0zm115 8h0zm-234-17l-2-1-1-1-2-1 4 1h2l3 1v2h-1l-3-1zm6 1v-1l1 1h-1zm55 3h2l3-1 2 1-4 1-3-1zm61 5l4-2c1 0 4-1 3-2-1 0-1 0 0 0 2-1 5 0 5 1h-3v1h-2l-2 1-5 1zm75 4h3l-2 1-1-1zm-306-22h0s-1 0 0 0zm191 11l3-1-2 2-1-1zm-66-5l2 1h-1l-1-1zm120 8l2-2v2h-2zm-132-10h0zm2 0v-1l1 1h-1zm79 4h0zm49 3c-1-1 0-1 1-1v1h-1zm161 11c-7-2-6-2 2-1h10l2 1h3c1 1-5 1-8 1l-9-1zm19 1l2-1 1 1h-3zm-48-4v-1l1 1h-1zm18 1h5l-2 1-3-1zm-463-32c-3-1-3-2-3-3h1l5 1s0 1 0 0v2c1 1 1 1 0 0h-3zm502 34l2-2c3 0 6-3 6-5l2 2c0 1-5 5-7 5h-3zm-66-5v-1l1 1h-1zm-16-2h-2 2zm-78-6v-1h3l-2 1h-1zm148 10l2-1v-1h1l2-1h2c1 0 2 2 1 3h-8zm-479-33l-2-1h3c1 1 1 1-1 1zm450 30h1v1l-1-1zm9 0h0zm-485-34l-2-1 3 1h-1zm35 2l-2-1v-2c1-1 3 0 4 1l1 1v1h-3zm424 28l-4-2c-1-1 3 0 5 2 2 1 3 1 1 1l-2-1zm44 3c-1-1 0-2 2-1l1 2-3-1zm-498-36h-1l-1-1-3-1-5-2h4l8 3c2 1 3 2 1 2l-3-1zm25 2v-2l2 1c-1 2-1 2-2 1zm516 34l7-1 4 1h-11zm-56-5h0zm77 4l4 1h-8l4-1zm-590-40h-1l-7-3h3l3 1 2 1h1l1 1h-2zm29 2l1-1 1 1h-2zm570 39h0zm25 0a96 96 0 0 1 12-1c4 0 7 0 3 1a121 121 0 0 1-15 0zm-46-5l4-2c2 1 0 3-3 3l-1-1zm75 3l2-1c1 1 1 1-1 1h-1zm-662-50h2v1l-2-1zm-66-6l-3-2-5-2-6-2c-2-1-3-2-1-2l-8-3c-3-1-3-1 0-1l4-1 4 1 2 2 7 3 4 3 2 1c1-1 4 2 4 3 0 2-2 1-4 0zm41-1l1-1v1h-1zm722 48l7-2-3 1-2 1h-2zm-750-52l-1-1c1-1 0-2-2-2l-3-2-5-3-6-2-2-1v-1l-1-1-3-1v-1h-3l-4-1c-2 0-2 0-2 2v1l-3-2 1-3h4l4 1-4-4 6-3 3-2h2l1 2c0 2 1 3 3 3l3 3h-2c-4-2-4-2-5 0v3l1 2c-1 1 5 2 9 2h1l2 1 1 2 1 1 3 2 4 2h1v2l-4 1zm-24-19h-1 1zm4-5v-1l-1 1h1zm64 26v-1l1 1h-1zm-8-3v-1l1 1h-1zm-79-6h1l-1 1v-1zm50 1c-1 0-1 0 0 0l1 1-1-1zm-10-3c-1-2-1-2 1-1l2 1c-1 2-3 2-3 0zm-40-8c-1-1 0-2 2-2 1 0 2 2 1 3l-3-1zm1 0l-1-1 1 1zm37 2v-1l2 1c1 2 0 2-2 0zm-35-6v-1h2c1-1 2 0 2 1 1 1 0 1-1 1l-3-1zm831 56l1-1v1h-1zm-830-62l-2-1c0-1 1-2 3-2l4 1 1 2-2 1h-1l-3-1zm-6-10l1-2 2-2c-1-1 0-1 0 0l7 2v1l-2 1h-3c-1 0-4 0-3 1v1l-2-2zm818 57h0zm3 0h0c-1 0-1 0 0 0zm28-1h12l-1 1-11-1zm12 0h1v1l-1-1zm-847-58l-2-1h8c1 0 1 1-1 1h-5zm-15-5l-2-1 1-1 1 1 2 1h-2zm15 1l-2-1 1-3 9 5-8-1zm812 54l1-1-1-1s-1 0 0 0l2 1-2 1zm9-2c0-1 4-2 5-1s0 1-3 1h-2zM81 457l2-1 3 1h-5zm867 57h0zm6-1l1-1h1l1-1h1l1-1v1c-1 1 0 2 1 2 2 0 1 0 0 1l-6-1zm-5-1h1l-1 1v-1zm-805-56l-3-1c-3 0-7-2-12-5l-4-1c-3 0-4-1-2-1 2-1 0-2-2-2l-2-1 4-1 4 1 3 1h4c-1 1 0 1 2 1l1 2c1 3 1 3 2 2s1 0 5 1v4l1 1-1-1zm-49-4h0zm20 1h2l-1 1-1-1zm809 53h1v1l-1-1zm9 1h0zM98 449c2 0-1-2-4-3l-3-2h5l2 2 3 2 2 2-5-1zm872 60h0zm-44-6h1l-1 1v-1zm64 4l1-1 1 1h-2zm-31-6l-2-1h3l10 2-11-1zM90 441l-1-1h-1 10l-1 1-3 1-4-1zm-19-1h0zm42 2h0zm831 56l2 1h-1c-1 0-2 0-1-1zm-826-57h2l1 1h-1l-2-1zm852 57l2-1h2l-3 1h-1zm-860-60l-3-3h-1c0-1-3-2-4-1l1 1 1 2h-2c-2-3-12-8-16-9-2 0-2 0-2 2v2l-5-4-7-3-1-1-1-2-2-1 3-1h3l1-1-1 1v2c1 2 3 2 7 1h3l-1 1v1l3-1 4-1 3-1v-1c0-1 0-1 0 0l1 1 2-2-2-2h2l2-1c1-1 4 0 4 1h-2l-2 1-2-1 1 1 1 2v3l-2 1h-2c-1 1-2 1-1 2l2 1h1l5 4 6 2c3 0 6-2 6-3h3v1h-3l4 2c5 0 5 1 0 1h-4l3 3 2 1h-6l-2-1zm22 0h3l2 1h-3l-2-1zm-58-5v-1c1 0 4 1 3 2l-3-1zm54 4l-2-1h2l3 1h-3zm-5-1c-1-1-1-1 1-1l2 1h-3zm20 1v-1c2 0 2 1 1 1h-1zm-10-1c-1-1 0-1 1-1l1-1h3l-1 1-4 1zm859 57l2-1h1l1-1 4-3c0-2 2-2 3-1l-2 2a475 475 0 0 0-9 4zm-881-62h1l-1 1v-1zm-61-4h0zm58 3l2 1-2-1zm900 52c-1-1-1-2 1-2 1 0 2 2 0 2h-1zM69 417l1-2v1l-1 1zm27-1h2l-1 1-1-1zm899 58l1-1v1h-1zm-889-61h0zm883 58h0zm-5-1l1-1c2 0 2 1 1 1h-2zM95 407h0zm930 63c0-1 2-2 3-1l-1 1h-2zm-34-3c-1-1 0-2 1-2 2 0 2 1 1 2h-2zm-14-3h0zm14 0l1-1 1 1-1 1-1-1zm-875-60l1-1v1h-1zm870 59h1l-1 1v-1zm-8-1h2l-1 1-1-1zm-857-60v-1 1zm864 55h0zm-864-62l1-1 1 1c2 0 1 1 0 1l-2-1zm907 61l-6-3 5-1 4-1 2-1c1 1-2 4-3 3h-2c-2-1-2 1 0 2l3 1h-3zm-910-63h1v1l-1-1zm-49-5l-2-2h1l4 2c3 1 3 1 1 1l-4-1zm6 1h0zm928 61l2-2v2h-2zm-866-60v-1h1c0 2-1 2-1 1zm884 59l-3-2v-1h-5c2 0 3-1 2-2s0-1 1-2h4c1-1 2 0 3 1v2l1 2v3l-3-1zm-911-64h-1 2c0 2 0 2-1 0zm-16-2h3c1 1 1 1-1 1l-2-1zm912 62v-2c1-1 3 1 3 2h-3zM92 382h-2l-4-4c0-1 1-1 3 1l3 3zm40 1l-1-1h2c2 1 1 2-1 1zm862 59c-1-1 0-1 0 0l2-1s2 0 1 1h-3zm-865-62h2v1l-2-1zm-47-3h0zm44 2l1-1 1 1h-2zm0-4h1l-1 1v-1zm-8-2h-2l2-1 2 1h-2zm-13-2l-4-1-6-2-4-1-15-6h4l6 2h6c-1 1-1 1 1 2l8 2 5 1 4 2v1h-5zm337 14l2-1v1h-2zM69 359v-1l1 1-1 1v-1zm952 65l1-2c1-1 2-1 2 1 0 1-1 2-3 1-1 0-2 0 0 0zm-599-45l1-1v1h-1zM97 355l-6-4 4 2h1l3 1 2 1 1 1-5-1zm318 22l1-1v1l-1 1v-1zm79 5l2-1h1l-3-1h-4c-1-1-1-1 1-1l11 1c1 1 1 1-1 1l-7 1zm34 1l-4-1-10-2h-2 13l-1 1 3 1c3 0 3 0 2-1s0-1 3-1l4 1v1h-1l-7 1zm492 33c0-2 0-2-1-1-2 0-2 0 1-2 2-2 4-3 7-3 2 0 2 0 1 1v2c1 2 1 2-3 3h-5zm-534-37l1-1 1 1h-2zm53 3c0-1 2-2 3-1h4l-5 1h-2zm25 1h1l-1 1v-1zm4 0h0zm13 0c0-3 0-3 3-3 2 1 4 2 2 2l-4 1v1l-1-1zm456 31v-1a894 894 0 0 0 0 1zm-935-64l-1-2 2-1 3 1v2h-4zm463 31l1-1 1 1h-2zm-33-4l2-1 1 1-2 1-1-1zm58 3l5-1c3 0 3 0 2 1h-3l-2 1c-3 0-3 0-2-1zm-459-32h0zm-3-1c-1-1 1-2 2-1s1 1-1 1h-1zm411 28h0s-1 0 0 0zm18 0l-3-1h-1l1-1h4l7 1c2 1 0 1-4 2l-4-1zm-444-30l-1-2h2v3l-1-1zm12 1l1-1 1 1h-2zm441 29h0zm-432-32c0-1 0-2 1-1h1l-2 1zm234 16c-2-1-2-2 0-2l4 1-4 1zm240 15h2l-1 1h-2l1-1zm21 2l1-1 1 1h-2zm376 25c-1 0-1-1 1-2h3l-1 1-2 1h-1zm-868-60l2 1h-1l-1-1zm894 61l2-2 1 1-2 2-1-1zm-428-30h1v1h-1v-1zm7 1l1-1h1v1h2c1 1 0 1-1 1l-3-1zm-15-1h0zm50 3l2-1 1-1h4l4-1v2l-1 1-3-1-2 1h-5zm-284-20v-1 1zm643 42l2 1h-2v-1zm-625-42l1-1 1 1h-2zm258 17l-2-1h2l2 1h-2zm-23-2h0zm-495-37h2l1 1c-1 1-2 1-3-1zm341 24h2l-1 1-1-1zm563 39c-1-1 2-4 5-5l3-2c-1-2 4-3 9-2 4 1 6 1 4 2h-5c-1-1-2-1-3 1l-3 2-1 1-8 2-1 1zm-878-61c-1-2-1-2 2-2 2 0 2 1 2 2l-1 1-3-1zm-22-2h1v1l-1-1zm245 16h-2l-1-1h2l3 1h-2zm274 16c2-1 9-2 12-1l12-3h7c1-1 5 0 5 1h-2l-10 1-12 2-11 1h-3l2-1zm-282-21l-2-1h-2l-2-2c-2 0-3-2-1-2l1-1h3l6 2c1 1 1 2-1 1-2 0-3 1-1 2v1h-1zm655 41c0-2 0-2 2-2s2 0 1 1l-3 1zm-5-5l1 1h-1v-1zm-300-20l1-1h1l-1 1h-1zm314 21v-1c0-1-2-2-6-2l-3-1 4-1h1l2-1c1-1 7 0 8 1l-1 4-5 1zm-904-62l1-1v1h-1zm37 2h2l-1 1c-2 0-2 0-1-1zm196 14l1-1-1 1zm654 44l2-2-1 2h-1zm3 0v-1l1 1h-1zm-27-2h0zm-622-44v-1l1 1h-1zm-3-2v-1l-1-1h2v2l-1 1v-1zm645 43l1-1h2l-1 1h-2zm10 1h0zm-2-1l1 1h-1v-1zm-35-3l2-2v-2l-2-1-2-2h-1l-1-1v-1l1-1c1-1 1-2 2-1l5-2 1-1 1 1v1l-2 1-5 3h2c2-1 4-2 5-1s2 0 2-1h1c2 0 2 1 0 3-2 0-2 1-1 1l3 3v1h-4c-2 0-3 0-4 2h-3zm-823-57l1 1-1-1zm558 38l2-1c2-1 4-3 3-4h4l-4 3-2 1c-1 2-3 3-3 1zm-528-37v-1l1 1-1 1v-1zm-60-5l2-1 1 1h-3zm871 58c2-2 3-2 1-2l1-1 5-1c2 1 8-1 7-2l3-1c2 0 2 0 1 1h-2l-1 1-15 6-2 1 2-2zm-828-56l-2-2h1l1 1 1 2-1-1zm19 2l-2-1h4l-1 1h-1zm122 6l2-1 1 1-2 1c-1 0-2 0-1-1zm-130-9v-1l1 1h-1zm844 57h2l-3 1c-1-1-1-1 1-1zm-794-55l-1-2 2 2h-1zm798 54v-1c1-1 2-1 2 1h-2zm-673-47c-1-1 0-1 1-1l1 1h-2zm-188-14c-1-1 0-2 2-1 1 1 1 2-1 2l-1-1zm165 12l2-1 1 1h-3zm-52-6l1-1c2 0 2 0 1 1l-1 1v1l-1-2zm34 3v-1h3l-2 2c-1 0-2 0-1-1zm690 47l1-1v1h-1zm-653-45c-2 0-3-1-1-1h2c1 1 0 2-1 1zm638 43h2l-1 1-1-1zm-683-47c-1 0-1-1 1-1l1-1h1c1 0 1 1-1 2h-2zm715 49l-1-1h5l1 1h-5zm-840-58v-1l1 1h-1zm6 0v-1l1 1h-1zm148 8v-2l2-1c1 0 2 0 1 1h-1v1l1 3c-2 1-2 0-3-2zm654 47c-2-1-1-2 2-3l3-2c2-1 5 0 4 1l-1 1c1 2-7 3-8 3zm-637-45l1-3c2 0 2 1 1 3h-2zm-192-14h2l1 1h-2l-1-1zm95 5l-1-1c1-1 3 0 3 1h-2zm-54-4v-1l1 1h-1zm55 1h1v1l-1-1zm100 8v-1l1 1h-1zm-157-12l1-1v1h-1zm792 54h0zm-783-54v-1l3-1 2-1-2 1-2 2h-1zm53 3c-1-1-1-2 1-1l1 1h-2zm29 2h2l-1 1h-2l1-1zm11 1h1v1l-1-1zm563 38c0-1 3-2 6-1 3 0 2 1-1 1h-5zm126 8h1c1 0 2 0 1 1l-2-1zm-800-54v-1h1l-1 1zm10 0l3-4-1 2-1 3h-1v-1zm690 47h1v1l-1-1zm-648-45l1-1v1h-1zm113 8c-1-1-1-3 1-3l3-5h1l1-1 1 2v3l-4 4h-3zm521 34h3l-1 1-2-1zm148 11v-1l1 1h-1zm-122-9v-2c-2-2-1-3 1-2 2 0 4-2 2-3h-2l-3 3v-1l1-2 2-2a249 249 0 0 0 4 1h1l2-1 6-2 5-2h2l2-1h1c0 1 0 2-2 3-3 2-3 3-2 3 2-1 1 0 0 1l-1 1 1 1-4 1h-4l-2 1-8 2-2 1zm-687-48c1-1 1-2 3-2 1-1 1-1 2 1l-1 1h-4zm679 45l2-1v1l-1 1-1-1zm-601-42h2v1l-2-1zm-100-7h0zm585 40l1-1 1 1h-2zm-554-39v-1l1 1-1 1v-1zm641 44l2-2c2-2 4-3 4-1l-2 1-1 1-3 1zm-626-44h0zm639 43l2-1-1 1h-1zm18 1h2l-1 1-1-1zm-655-46l2-1-2 2v-1zm642 43l1-1-1 1c-1 0-1 0 0 0zm42 3l4-1 2 1h-6zm-728-50l1-1v1h-1zm694 46s2-2 3-1l-2 1h-1zm113 7h1c2 0 2 0 1 1l-2-1zm-803-55v-1l1 1h-1zm45 2l-2-1 2-1 3-1c2 0 3-2 2-4-1-1-1-2 1-2v1c0 2 0 2 1 1h3l-1 1-1 2c0 1-1 3-3 3l-2 2c0 1-1 1-3-1zm23 1zm603 42l1-1 3-2a201 201 0 0 1 6-5l2-1 6-5 1-1 2-1 3-1 1-1h3l4-1-2 2a79 79 0 0 1-12 8l-2 1-5 3-2 1-5 3-4 1zm15 0l3-1-1 1h-2zm-21-2l3-3-1 3h-2zm-676-46l1-2 2-2h1c-1 3-4 5-4 4zm780 52l1-1v1h-1zm-77-6c-1-1 0-2 1-3h1c1 1 1 1-1 2l-1 1zm6 0l4-3 2-2h1c0 1 3 0 4-2h4l-3 2-4 2-3 2c-1-1-4 0-4 1h-1zm-636-44v-1l1 1h-1zm737 48l1-1c1-1 1 0 1 1h-2zm-35-3c0-1 2-3 3-2h0l-1 1h-1v1h-1zm-23-3h-1c-2 0-1 0 0-1l2-1h2l1-1-1 1-1 2-1 1-1-1zm-746-52c0-1 2-2 3-1l-1 1c-3 2-3 2-2 0zm741 50l-1-1h5l-2 1c-1 2-2 2-2 0zm-58-4c0-1 5-5 9-6l4-3 6-3-6 5-1 1-2 1-3 2-2 1-3 3h-1l-1-1zm36-4l5-3-8 6 3-3zm-720-51h1v1l-1-1zm736 50l1-1 1-2-4 2 4-3h1l1 2v2h-4zm6-2c0-2 5-5 5-4 1 1-1 2-3 2l-2 2zm3-6h0s-1 0 0 0zm69 5l7-4v1c0 1-1 2-3 2l-4 1zm-42-8l2-1v1h-2zm-48-6l1-2 1 1-1 1h-1zm-1-11l4-2-1 2h-3zm26-1l10-5 9-4 6-3-1 1a72 72 0 0 0-11 7v1l-4 2h-4l-2 1h-3zm14-19l9-4-6 4-3 1-2 1 2-2zm-5 0h1v1l-1-1zm-24-12l6-3-3 3h-3z" fill="#46864f"/>
</svg>