<?xml version="1.0" encoding="UTF-8"?>
<svg viewBox="49 300 1000 186.6" xmlns="http://www.w3.org/2000/svg">
<path d="m898 486c-2-1-2-2 0-2l3 2h-3zm25-2 2-1 1 1h-3zm-21-1zm-564 3h1v1l-1-1zm564-6 1-1v2l-1-1zm47-2c-1 0-1 0 0 0h3c2 1 2 1 0 1l-3-1zm-5 0zm7-1h2c3-1 3-2 0-2h-5l-6-2-5-1-4-1c-3-1-3-2 0-2l2 1h1l8 2h1l9 2c3 0 5 1 4 3l-4 1-3-1zm-11 0h-3l-4-1h2l7 1h-2zm-623 2h-1l-1-1c1-1-2-2-3-2h-3l1-1h1l-1-1h-3l-2-1h1v-2l1-1v-2c-1-1-2 1-2 2s-1 2-2 0h-1v1l1 2 1 1c2 0 2 2 1 2-2 0-2 0 0 1v1h-5l-2-2h3c2 0 2-1 0-1l-1-3-1-2v-3h-3l-1-1v0h2l-6-1c-3 1-4 0-4-1s1-2 2-1c3 1 3 1 3-2l-1-2v-1l-3 2-1 1-1-1c-2 0-2 1-1 1v3l-3-2c-2-3-3-3-5-3-1 1-1 1 1 3s2 3 1 3l-3-1-1-1c0-2-1-1-2 1l-1 2-2 1h-4l1-1h2l2-1c1-1 0-3-2-4l-1-1c2 0 1-2 0-3l-2 4-2 2h-3l-2-1 2-2v-2c-2 0-2-1-1-2-1-1-1-1 1-1l1-1h-3l-4 1-3 2h-2l-1 1v1l1 3v1c-1 1-2 2-3 1l-1-3-1-2h-1v-2l2-3c2 1 2 0 1-2l-1-1v2l-13 3h-1 1v3h-3l-8-1c-2 1-2 1-1 2h18v1l-3 3h-9c-1-1-2-2-3-1 0 1-3 2-4 1-2-1-3 0-2 2 0 1-1 2-3 0-2-1-3-1-3 1v1l-1-1c0-2 0-2-2-2a285 285 0 0 1-3 1v1h-6l1-1 4-1-2-1h-2l-4-2-1 1c-2 1-2 1 0 1h1l-2 2h2c2 0 2 0 0 1l-1 2 1 1-1 1-2 1v1h2c0-1 1-1 1 1h-6l-2-1c-2 0-2-1 1-2l1-1h2l-1-1-2-1h-1l2-2c0-1-2-2-5-1l-3-1-2 2c0 2 0 2 2 3v3l-3-3v-2c1-2-1-3-3-2-2 0-2 0 0-1l6-2h3c2 0 3-1 3-2h-5c-2 1-3 0-2-1s1-1-1-1c-1-1-1-1 1-2l2-1-2-2h-3l-2-1h-1l-6-1h-1l-1 1c1 2 0 2-2 1l-3-1-3 1h-1c-2 1-5 0-9-2h-3l-3-2h-6l-2-1c-2 0-2 0-1-1l-1-1-2-1-1-1v-2l2-2c2-1 3 0 2 1-2 2 0 3 3 2 2-1 2-1 2-3l-1-1h-2l1-1h-2l-3 1-2-1h-2l-2-1v1c-2 1-4-1-4-2l-1-1-2-1h-3l2-1c1 0 2 0 1-1v-1h-6c-2 1-1 2 0 2l1 1v2l-1 1h1v1c-1 1-2 1-1-1 0-2-1-3-4-3h-2l-1 1-3-1h-2v2c0 2 0 2-1 1h-3l-2-2v-2c-1 0 0 0 0 0 1-1 1-1-1-1s-3-1-2-2h4l5 2 2-1 1-1-2-2v-2l4-2c2 0 2 0 1-1l-1-2c0-3 0-3-2-2h-1c0-2-1-3-2-2h-2c-2-1-2-1 0-2v-5l1-2 3-3v-1l-2-1c-1-2-5-2-6-1l1 2 2 3-6-1h-2l-2-1c-1-1-4-2-6-1v-1c0-1 5-4 6-3l2-1h2c0-1 1-2 2-1h5l2-2h2l-2 1-1 1h2c3 0 3 0 4 3l-1 3v1l3-1h2l1 1v2l3 2 5-2-3-2h-2l-2-2 1-1h1l2-2h-7l4-4-3-1c-1 0-1-1 1-1v-1l1-1c1 0 1-1-2-2h-6l-1 2-6 3h-3c-1 2-4 2-5 1h-1c0 1 0 2-2 1l-3 1c-3 1-3 1-1-1l1-3h4l-1-1v-3h7v-3l-2-3h-2c2-1 1-2-2-5-2-2-2-3 2-1 2 2 3 2 3 0l4-3v3c-1 0 1 2 3 2l4-3c0-1 2-2 4-1l3-3h4l3 1 2 1h2l2 1v-1c-1-1-1-1 1-1l10-1-3-6c-2-1-2-1 1-2l4 1h3l2-2v2c-1 1-6 4-7 3h-1s0 1 0 0l1 1h3l7-2-2-2h2l2 1h4v-2c-2-1-2-3-1-2l6-2h1v-2c-2-1-1-1 2-1h3l-1-1-4-2h1c2 0 4-1 4-3s1-3 2-3l3 1h10l4-2 3-3v-4l1-1c0-1 1-2 2-1v1l1 2 3 1h5c-1 1 2 1 6 1l7-1h3l1 1h3l2-1v-1h2c-1 1 0 1 2 1v-1l-4-2v-1h1c1 1 1 1 0 0v-1h3l5-1 2-2h-1l-2-2-1-2h4c2 1 7 0 8-1h2v1l-1 1 2 1 4-1 5-1h4l4-2h2l6-1 7-2c5 0 6 0 5-1v-1c1 0 2-1 0-2l-1-1h2l2-1 1-1h3-6v1l2-3 4-5c-1-1-1-1 5-1l3 1 2 1 1 1v1l1-1h6l2-1h2l1 1h1c1 0 2-2 1-6h5l3-2 3-1 6-1h2v1l1-1h1l1 1h1c3-1 8-2 9-1l-6 4 7-1 5-1v1l-4 2c-4 1-4 2 0 1h5l6-1h4v2h4l3-2 1-1 2 1v1l-2-1v4h3a106 106 0 0 1 7-2l2-1c2 0 2 0 2-2l-1-2c-2-1-2-1 1-2 2-1 6-2 7-1v1l-1 1h2l1 1 6-2c1-2 1-2 3 0l4 1 12 2h3l-5 1-6 2-2 2h9v-1l1-1 3-1h4l3-1 1-1h4l1-1c0-1 15-2 19-1h10v2l5 1h6l2 2h-1l-4 1-5 1-3 1h4l3-1v1a215 215 0 0 0 56-4h6l7-1h8l10-1 3 1h1l1 1h2l-1 1h-2l-3 1-2 1-1 1 4-1 1 1h14l-1-1c-1 0-1 0 0 0a886 886 0 0 1 75-2 308 308 0 0 0 36 1l6 1h1l6 2h3l8 1h7l-3 1h-3l5 1 15 2 6 1 7 1 18 2h7v-1c-1 0-1 0 0 0l1 1h16v-1h2v1l2 1h10l6 1h3l3 1h3c0-1 3-1 6 1l5 2h9c-2-1-1-1 0-1l1 1 5 1c2 0 2-1-1-1l-1-1 1-1v-1h1l2 1c3-1 6 0 5 1l1 2 4 1 5 1h8l7 1h2v-1l-1-1h5l1 2c2 3 5 3 5 1v0h2v-3l-1 1-2 1c-2-1-2-1 0-1v-1l1-1v-2l1-4c-1-1 0-1 1-1l1 3v1l2-2 1-2h-2s-1 0 0 0v-2l-1-1v-1c0-1 1-2 3-2l1-3 2-2 2 2h1l2 1c0 1 1 1 1-1 1-2 3-3 5 0l2 3 1 3v1l-1 3-1 4-1 2h-4v-3c0-6-1-11-2-9h-1l-2 1-1 4 1 4 1 1v1l-1 1v1l5 2 4 1c4 1 4 1 3 2l-6 2 2 1 1 1c0 1 2 2 4 1l3 1 12 2c1 2 1 2-3 1h-6l2 1c2 1 1 2-3 2h-4l-1 1-2-2h-5l-7-1 3 1a26 26 0 0 1 9 2 315 315 0 0 0 27 4h3l-2-2v-1c1-2 2-2 4 0l1 1v2l1 1h1l3 1 4 1a299 299 0 0 0 17 3c-1 0 1 2 4 2 2 1 4 0 2-1l-2-1h-3v-1h1l1-1 1 1 2 1-1-2c-1-2 0-2 4-3h3l-8-6-3-2c0-1-1-2-3-2l-3-1 3-1h3l-1-2 1-2v-4l-1-2v-2l1 1 2 4 3 3 3 2v1l2 3 1 1-1 2h-2c0 2 1 2 2 1h1v1l2 1 3 3 2 1v1h-3c-3 0-4 0-4 2l7 1c5 0 6 0 5-1h-1l-2-1c-2-1 1-2 5-1l2 1-1 4 5 1 4 1 3 3 4 3v-1h-1 1l2-1h-1v-1l-1-1c-1-1 0-1 1-2h5l-1-1-3-1h6l2 2 1 2c-1 0-1 0 0 0 2 1 2 2 1 2l-5 1h-6l3 1c3 0 7 2 7 3l-3 1h-3c-1 1 0 2 4 3l6 1c0 2-1 2-3 1l-8-2h-6c0 1 1 3 2 2h1v2l-3 1c-2 0-3 0-1 1h3l1 1c-2 1-2 2 0 2h3l3 1h3l-3-2-4-2c-1-1-1-1 1-1l2-1h1l14 2h1l-1 1h-4l-10-1c0 1 5 3 8 3l3 1 2 1 3 1 1 1 4 2h-6c0 1-2 1-5-1-4-1-7-2-9-1h-4l-3-2-1-1h-2l1 2v1c-2 1 0 2 5 2a164 164 0 0 1 14 2l-6 1h-13l2 1 3 1 2 1 1 1h3c1-1 9 0 11 2l2 1 2 2h1l-4 2h-1l-3 2-2 1h1l1 1 4 1-1 1h1l1 1h-1v1l6 1c4 0 4 1-1 1l-2 1 3 2h-2l-13-3c-2 0-2 0 1 1h3c1 1 0 1-2 1s-2 0-1 1v1h-15c-2-1-2-1 2-1l4-1h-1a907 907 0 0 0-14-3l-2-1c-1 0-3 0-2-1h-1l-1-1v1l3 2h-1l-5 1-1 2c0 2 0 2 2 3l5 2 3 2h2l15 3 6 1 8 2v2l-1 3-1 2-2-1c-3-1-5-2-3 0l2 2h2v1l-8-1h-6l3 1 2 2 6 2h-1l-4-1h-7l4 4c3 1 3 1 2 2l-1 1h-1v1l-2-1-6 1 4 1h1c-1 1 1 1 4 1a86 86 0 0 1 8 0l-2 1-1 1c1 1 0 1-2 2h-1v-1l-2 1h-5l1 1h3-6l-4-1c-4 1-7 2-6 3h2c3-1 4-1 10 1l5 3-3-1c-3-1-3-1-3 1l-3 1-4-1h-2c0-1-1-2-3-1l-2 1v1h-7c-1-1-1-1 2-1l2-1-2-1-4-1c-1-1-2-2-5-2l-7-1v0h-1l1 1c4 1 4 3 1 3l-4 1-1 1-2 1h-2v-2h-1c-1 0-1 0 0 0l-1-1h-4l-1-1h-2l-2-1-1 2h-5v1l-2-1h-3l-2-1h-14v0l-3-1h-3c-2 0-2 0 0-1h1l-3-1-1 1h-1l-4-1h-4l-5-1-4 1v3h-1l1-1h-3l-9 1-3-1c-1 0-1 1 1 2l3 1-4 1-2 1h-7l-7-1h-1l2-1 1-1c-1-1 0-2 2-1 3 0 4-1 2-2l-7-4-3-1h-4l-7-1-4-2h-5l-19-2h-4l2 1 3 1h-7c-1-1 0-1 1-1l-1-1c-1 0-1 0 0 0 2-1-1-2-3-2h-4l-6-1h-4v-1a144 144 0 0 0-21-3 710 710 0 0 0-101-11 288 288 0 0 0-35-2 207 207 0 0 1-25-1l-6 1-17 1h-7a529 529 0 0 1-49 3c-11 0-14 1-16 2l-1 1h-1 18a361 361 0 0 0 42 2l-10 1-16 1h-33c-1-2-16-2-18-1v2l-3-1h-4v1l-1-1c-1-1-7-2-8-1l-3 1h-4l-1 1h15c-1 1-4 2-9 2h-2l-6 1-5 1h-1l-11-1 4 1 12 1h-10c-11 0-13 1-8 2 3 1 2 2-2 2h-11l-2-1-6 1c-6 0-7 0-5 1h-4c-5 0-6 0-5 1 2 1 1 2-2 2h-5l-6 2v3c3 1 1 1-3 2-5 0-7 0-8-2 0-2-2-3-3-2h-7l-2-1-3-1h-8c-6 2-7 2-8 0l-3-1h-2l-1 1c-2 1-2 2-1 2h2c2-2 2-2 2 0l2 1 1 1 2 1 3 3-6-2h-2v1l1 2v2c0 2 0 2-2 2l-4-2-2-2h-1l-1-2h-1l-1 1v-2l-1-2-2 1h-4l-1-2h-2l1 2 4 3 1 1c1 1 1 1-1 1h-1l-1 1-1-1c2 1 1-1 0-2l-3-1h-2c-2-2-2-2-2 0l1 2 6 4 1 1v1l-4-2c-1 1 0 2 1 2 0 0 5 4 4 5l-1-1-5-4-1 1-4 1c-2 0-2 1 0 2l1 2h-1l-2-1h-2l-4-2-2-2h-3c0 2 3 4 4 4l2 1-2 2c-2 0-8-3-12-7h-1v1l2 3 2 2 2 1c1 1 1 2-1 2l-2 1h-2zm-2-13c-1 0-3-2-4-1v2c1 2 3 3 4 1v-2zm-4 1 1-1v1h-1zm25 2v-2l2-1h1l-2-1-1-1h-1l-1-1-6-3-2 2 1 1h1l4 2 1 2 2 2h1zm4-2s-1 0 0 0zm652-7h-2 2zm-775 4h-2 2zm80 0c1-1 0-3-1-3v2l-1 1h2zm-64-1h-1l1 1v-1zm-28 0h-1v1l1-1zm724-5h-1 1zm-718 3v1h1l-1-1zm677-4-2-1h-1l-4-2c-3-1-3-1-1 1 1 2 3 3 8 3h3zm-692 4v-1h-4c0 2 3 3 4 1zm781-4-5-1 3 1h2zm16-1c-1 1-1 1 0 0zm-631 3-1-2v-1h-2v3h3zm-156 1 1-1h-1l-3 1h3zm130-2h-1v1c0 1 1 1 1-1zm570-3h-1l1 1v-1zm93 0h-1 1zm-803 2h2l-4-2v-1h-2l-1 1v2h5zm20 0v-1c-1-2-3-1-4 0s-1 1 1 1l2 1 1-1zm800-5zm-607 3-3-1c-2 1-1 2 1 2l2-1zm-200 1h-2l1 1 1-1zm740-5h-3l-3-1h-4l2-1-2 1h-2l3 1h4l2 1 3-1zm-590 4-1-1v1h1zm37-1v-1c-4 0-4 0-3 1h3zm-24-1v-1l-1 1 1 1v-1zm-139 1c1-1 0-1-2-1-4 0-4 1-1 1h3zm-5-1-4-1h-1l5 1zm179-2h-2l1 1 1-1zm597-3h-1 1zm-749 4-1-1v-1c0-2-2-1-3 1 0 1 0 2 2 1h2zm757-6h-2 2zm-801 4 1-1-1-1-3-1c-2 1-3 3-2 3h5zm-21 0h-2l1 1 1-1zm14-3 3-1c1 0 1-1-1-1h-2c0 1-2 2-3 1l-2 2h-1l6-1zm16-1 2-1h-1l-1-1-4 2h4zm777-5h-1l1 1v-1zm2 0 2-1h1l-1-1h2-3l-4 1c-3 0-2 1 1 1h2zm-789 4h-1v1l1-1zm774-6c2-1 2-1-1-1l-2 1c-1 1 2 2 3 0zm9 0h-1l1 1v-1zm5 0-4-1h-2l2 1h4zm-852 5c0-2-1-2-2-1l1 1h1zm861-6h-1 1zm-528 0h-1c-1 0 0 0 0 0h1zm64-1-1-1-10-1h-3l-1 1 4 1h11zm-392 0 4-2 1-1v-2l1-1h-3v-1l1-1h-2l-3 1-2 1h-1l-1 1h3l1 2-5 2-1 2h3l4-1zm-1-2zm4-3 1-1-1 1zm-4 0v-1h1l-1 1zm369 2c-2 0-2 0-1 1l1-1zm458-3h-2 2zm34-2c-2-1-6-2-7-1s-1 1 3 1l4 1h3l-3-1zm-878 6-1-1v1h1zm840-6h-3 3zm-872 4h-2l2 1v-1zm7-3h-2l1 1 1-1zm28 0c2 0 1-2-1-2s-3 1-2 2h3zm840-6h-1 1zm3-1-3-1 2 1h1zm-860 2v-1l-4 1 1 1h3v-1zm5 1h-3l-2 1h3l2-1zm858-7c-2-1-3-1-2-2 0-1-1-2-5-3l-4 1h-2 2l1 1h1l1 1 1 2 9 1-2-1zm-853 5h-1 3l2 1h1c-1-1 2-2 5-2h3l1 1v-1c-1 0-1 0 0 0h1s0 1 0 0l1-2v-3l2 2c0 2 2 3 3 2l2-3 2-2h1c2 0 4-2 2-2-4-1-9-2-10 0h-3c-3 0-3 0-5 2l-2 3v1h-1l-1-1c-2 0-2 1-1 2l-1 1h-3l-4 1h1l2 1h1l-1-1zm2-3h-2 2zm820-5h-2 2zm4-1c-2-2-8-3-8-2 0 2 2 2 7 2h1zm53-1h2l-1-1-5-1h-3l-1 2a23 23 0 0 0 8 0zm-875 4-1-1v1h1zm-7-1-2-1-1 1-1-1 2 1h2zm4-1s0-1 0 0h-1 1zm-9-1c1 0 1-2-1-2h-2l-3 1-4 1h10zm15 0v-1l2-2h2l1-1c-3 0-10 3-9 4h4zm834-6-1-1c-2 0-3 2-1 2s3 0 2-1zm17 0h-3v1c2 0 4 0 3-1zm-841 4c2 0 2-1 0-1-3-1-4 0-5 1h1l1 1 3-1zm831-5-2-1v1h2zm-845 4zm15-2c0-2-1-2-3-1-1 2-1 2 2 2l1-1zm863-6c-1 0-9-2-10-1h2l5 1a646 646 0 0 0 3 0zm11 0 2-1h-4l-3 1h5zm-897 4c-1-1-1-1-1 1v0l1-1zm902-6h-1l-3-1-4-1-2-1 2 2 4 1 3 1 1-1zm-875 4h-1v1l1-1zm831-6h-3 3zm-861 4v-1c-1 1 0 1 1 1h-1zm856-6h-2c-1 0-1 0 0 0h2zm-836 3h1l2-1h-2l-1 2v-1zm831-8h-4l4 1h2l-2-1zm-817 6-1-1-1 1h2zm792-10h-3l1 1c-1 1 0 1 0 0l2-1zm4 1h-4l3 1 1-1zm-11-2h-2l-6-1c-2 0-2 1 0 1l2 1h3l3-1zm79-1h-2 2zm-71-1h-1c-1 0-2 1 0 1l1-1zm15 0-3-1h-2l1 1h4zm28-1-2-1-1-1-6-2-5-1h-12l3 3c-2 1-2 1 0 2h8l11 1a31 31 0 0 1 6 1l-2-2zm-41 0c1 0 1-1-1-1l-6-1 1 1h1l2 2h2l1-1zm-777 2h-1l-2 1 3-1zm768-7-1-1c-1-1-2-1-1 1h2zm38-2h-6a67 67 0 0 0 4 1l2-1zm-874 5h-1v1l1-1zm882-6-3-3h5l-3-3c0-1-2-1-2 1-1 1-2 1-5-3-2-1-2-2-2-3l-4-1h-12l-2-2c-1-1-1-1-5 1-1 1-2-1-2-2l-1-1a131 131 0 0 1-12 0c-5 2-7 2-9-1l-6-2-4-1h-5l-6-2-2 2 3 2 3 1 5 2h2l1-1v1l4 1v1l2 1 3-1a251 251 0 0 0 15 1l4 1h2v-1c2-1 3 0 4 1l-2 1c-1 0-2 1-1 2v2c-1 1-1 1 1 2h6l-2-1c-2-1-2-1-1-2l1-1h-2v-1l6 1 1 1 3 1 8 2 1-1v-1l1 2 2 1 6 2h-1v1h5zm-22-8c-2-1-2-2 1-1l2 2-3-1zm12 7h-1 1zm-20 0v-1l-1 1h1zm43-1v-1c-1-1-1-2 1-2v-1l-1-1-2-1-3 2 1 2 3 2h1zm-903 5-1-1c-1-1-2 0-1 1h2zm21 0 1-1h1l-1-1-1-2c-1-1-2-2-3 0s-1 3 1 3h1v2l1-1zm7-1v-2h-2l-2 1c-1 0-1 1 1 1l2 1v-1h1zm6 0-1-1h-1l-2 2h2l2-1zm11 0 2-1c2 0 2-1 0-1h-3l-4 1h-3c0 1 7 2 8 1zm16-3c1-1-1-2-3-2v2l-1-1h-3l1 1h6zm-27-1h-2 2zm866-9c0-2-1-3-2-3-2 0-2 1-1 3h3zm-72-2h-2l-2-1 2 1h2zm87-1h-2 2zm-38-1v-1 1zm8-1-4-1-3-1c-2 0-3 0-2 1l3 1h3l2 1 1-1zm-24-2h-5 5zm-785 4v-1h-3l3 1zm727-5h-1c-1 0-1 0 0 0h1zm45-2h-1v1l1-1zm-60 0-2-1v1h2zm-12-5-4-1-6-1h-1l-7-1 2 2 4 2 1-1h3l6 1c2 1 2 0 2-1zm-701 2h-2 2zm664-8h-1l1 1v-1zm131-2h1l-2-1-1-1c-1 0 0 0 0 0h-1c0 2 1 3 2 3l1-1zm-140 0-4-1-1 1 4 1c2 0 2 0 1-1zm43-1-1-1s-2 0-1 1h2zm-3-2v-2l-3-1v1l2 1h1l-2 1h-3l-2-1c-1 1-1 2 2 2l2 1 1-1 2-1zm-119 2h-1c-1 0 0 0 0 0h1zm110-2-1-2c0-2-2-3-2-1h-1c-2 0-2 1 1 2 2 2 2 2 3 1zm107-1v-1h-2l2 2v-1zm-158 0h-1 1zm46 0h-2 2zm-34-1v-1 1zm-16-1 2-1h1-2l-2-1-1 1h-2c-1 1-1 1 1 1h3zm10 0h-1l1 1v-1zm74-1h-2l1 1 1-1zm-92-1v-1a299 299 0 0 1-6 0l3 2 3-1zm40-1h-2 2zm-48-1h-3l-2-1h-2v1h2l3 1c3 0 3-1 2-1zm-10-1h-1c-1 0 0 0 0 0h1zm37-1h-2l1 1c2 0 2 0 1-1zm-48 0-10-2c-1 1 0 1 4 2h6zm-18-2h-1s-1 0 0 0l1 1v-1zm-6-3-4-2h-7c-1 1 0 2 1 1h2l3 1a11 11 0 0 1 5 1v-1zm-13-3h-2l-2 1h2l2-1zm-6 1h-1 1zm-442-1h-1c-1 0 0 0 0 0h1zm8-1-1-1v2l1-1zm388-2h-2 2zm2 0-1-1v1h1zm4 0h-3 5zm-390 0-1-1 1-1h2c-2 0 0-2 2-2h1c1-1-1-1-3-1h-11c-1 2 1 3 3 2l3 3h3zm-3-3h1l-1 1v-1zm10 3c1 0 1-1-1-1-1-1-5 0-5 1h6zm70-3v-2h-3l-1 2h4zm19-3-1-1v1h1zm-16-1h-1 1zm22 0s0-1 0 0h-1 1zm7-1v-1l-1 2 1-1zm-67-1h-3l-1 1h2l2-1zm65-1-1 1c-1 0-1 0 0 0l1-1zm36-1h-6l1 1h2l3-1zm-34 1h-1v0h1zm53-1h2l1-1h-7l-2 1 3 1 3-1zm-48-1-3 1 3-1zm41 0h-2 2zm-289 171 2-2h1l-1 1-2 1zm70 0 1-1v1h-1zm-9-1v-2 2 0zm113-1-1-1 1-2h1l2 2h1l-1 1-2 1-1-1zm579-3-4-1-6-2 2-1h2l7 2 4 1h2l-7 1zm-41-1h1v1l-1-1zm-691 4 2-1 1 1h-3zm-2-1 4-2c2 0 4 0 3 1h-1l-4 1h-2zm162-1zm-139 1v-1l-2-1v-2h2l1 1v0l1 2 2 1h-4zm80-1-1-2 2-1 1-1h1c1 1 1 1 0 0l1-2h1v2l-2 2-3 2zm-110 0-2-1h-1l2-2h2c0 2 1 2 4 2h2l-3 1h-4zm-8-2 2-1 1-1-3 2zm706-5h-1l-1-1v-1h2l1 1c1 1 0 2-1 1zm136-1 4-2c2 0 2 1 0 1l-3 1h-1zm-656 2v-1l1 1h-1zm540-4c-1 0-1-1 1-1h8l-2 1h-7zm-538 3v-1l1 1h-1zm619-5 2-1h2l-2 1h-2zm-41 0v-2l4-1c0 1 0 2 2 2s3 1 1 2l-7-1zm-792 5 1-1v1h-1zm811-6h2l-1 1-1-1zm-817 5h1v1l-1-1zm123-1-1-2 1-1 1-2h1l1 2v1l-2 3-1-1zm-117-1 1-2h-1c-2-1-2-1-1-2l2-1 1-1v-4l1 1 2 1 1 1-1 1-1 3-2 1c-1 1-1 1 0 0v2c-2 2-3 2-2 0zm271-1v-1 1zm-127 0h2l-1 1-1-1zm630-4c-1 0-1-2 1-2l2 1c1 2 0 2-3 1zm-760 5c-1-1-1-2 1-2h1l1 1 2 1h-5zm5-2h2l-1 1c-2 0-2 0-1-1zm-56 0 2-1h1c-1 1-2 2-3 1zm252-1 1-1 1 1h-2zm488-4zm-459 3 1-1v1h-1zm18-1zm458-3c-1 0-1 0 0 0zm-599 4 1-1v1h-1zm159-1 2-1-1 1h-1zm584-4zm-877 5h-2c-2 0-4-2-5-4l-7-2 2-1 2-2 6-2h2l-2 1c-3 1-3 1-2 2l2 3c1 1 1 2 3 1l4 2c3 1 4 2 1 2h-2l-1 1-1-1zm-8-7v-1l-2 1h2zm141 6v-1c-1-1 0-1 1-1s2 1 0 2h-1zm600-5v-1l1 1h-1zm-697 4h-5l1-1 4-1h5l1 1-1 1h-5zm17 0 3-1-5 2 2-1zm62 0-2-1-1-1 2 1c2 0 2 1 1 1zm197-2 1-1h1c-1 2-2 2-2 1zm-285 2zm237-2h1v1l-1-1zm464-4h-4l-3-1h8l2 1h-3zm-698 4h1l-1 1v-1zm-10-1 3-3 2 2c1 0 1 1-1 1l-3 1-1-1zm241-1 2-1v1l-2 1v-1zm33 0zm389-3h2l-1 1-1-1zm-717 3v-2l-1-1h2l-1 2v1zm718-4zm-8-1c-1-1 0-2 2-2l1 1-1 2-2-1zm-13 0-2-1h6l-1 1h-3zm-717 4 2-2-1 2h-1zm103-1 1-1c1 0 2 0 1 1h-2zm602-5c-2 0-2-1-1-1h2v-1h2c2 0 1-1-1-1l-2-1h2l4 1c3 0 4 1 2 1l-2 1h-3l-1 1h1v1c0 1-1 1-3-1zm21 1 1-1 1 1h-2zm-9-3 7-1-4 1h-3zm-31-1-1-1h5v2c0 1-1 1-4-1zm41-1h1v1l-1-1zm-56-2 1-1 1 1h-2zm-640 2 3-3v1l-1 2-2 2zm24 1h2l-1 1-1-1zm-17-1h2l-1 2-1-2zm11 0 2-2 1 1-1 1h-2zm10 0v-1h1l-1 1zm-15-1v-1l1 1h-1zm-9-1 1-2-1-1h2c1 0 2 2 0 3h-2zm13-1 1-1h3l1 1-2 1-3-1zm6 0h2l-1 1-1-1zm-44 0 1-1v1h-1zm9-2v-3l1-1h1l1 2v2c0 2-1 2-3 0zm15 1zm-9-1v-1 1zm-37-3h1v0h-1zm53 0h1l-1 1v-1zm908-10a39 39 0 0 0-11-3h-7l-1-2-1-1h3l14 2 6 1c5 0 5 0 2 2l-2 1h-3zm-932 6 1-2c1-1 2 0 2 2h-3zm-34-1 2-3a319 319 0 0 0 7-6l-1 3c-1 1-1 2 1 2s2 0 1 1c-1 2-2 2-2 0l-1-1-2 1-1 2-3 1h-1zm31-2 1-3v-1h-2l-3-1-2-1v-2l3-2c0-1 2-2 5-2l3-1h2l2-1v-2l3-1c1 1 2 1 0 2 1 0 1 1-1 2-1 0-1 1 1 2 3 1 3 1 2 2l-2 1h-2l-3 3c0 1-2 1-3-1h-2c-1 1 4 3 7 3h1l-1 1-3-1-2 2-1 2-1 1h-1c-1 1-1 0-1-2zm-1-8 1-1-2 1h1zm-6 10zm920-9v-1l1 1h-1zm-2 0zm32-3h-2l3-1c2 1 1 2 0 2l-1-1zm-929 6-1-1 1-1c3-2 5-2 5 0l-1 1h-2c-1 2-2 2-2 1zm-48-3 1-1 2-4h4l-4 3v1l-2 2c-1 1-1 1-1-1zm16 1 1-2c2 0 2 1 1 1-1 2-1 2-2 1zm930-6c-1-1-1-2 1-1v1h-1zm49-5h-3l-3-1-1-1c-3 0-6-1-5-2h4l4 1 9 3h-5zm-981 6 3-3-1 3h-2zm9-1s-1 0 0 0v-2l-2 1-3-1 2-1 3-4 1-2h5c1 1 1 2-1 2l-1 1v1c-2 0-2 1-1 3 0 3 0 3-3 2zm966-10h-2c-3 0-3-1-2-1h3l2 1h-1zm-951 5c0-2 1-3 2-2l-2 4v-2zm5-1v-1c2 0 2 1 1 1h-1zm-13-6h1v1l-1-1zm-6-2v0zm1-3 2-1v2l-2-1zm956-8c-1 0-1 0 0 0zm-958 5c-1-1 0-1 1-1v1h-1zm1-2 1-1 2-1h6l-4 2h-5zm15-6v-1h1l-1 1zm-10-4h1v1l-1-1zm960-8 1-1c1-1 2 0 2 1h-3zm-15-2-3-3h-1c2-2 9 2 8 3h-4zm10-3h-3l-2-1c-1 0-1 0 0 0l2-1h1l4 2h-2zm-18-1zm-918 6 5-2-2 1-3 1zm-7-1-1-1 2 1h-1zm933-8h1v1l-1-1zm-919 5h1l-1 1v-1zm894-13c-2-2-3-5-2-5l6 2c3 0 4 1 2 2l-2 2c-1 1-2 1-4-1zm-854 4 1-3v4l-1-1zm813-8v-1l1 1h-1zm-17-3-1-2 3 2v1h1c0 1-1 1-3-1zm6 1-1-1 2 1v1l-1-1zm-795 5h-1l2-1v1h-1zm-10 0 1-1 1 1h-2zm818-6-2-1-1-1-1-2 1-1v-1l-1-1h1l6 4-2-1h-2l1 1v1h2l1 1-3 1zm21-1v-1l1 1h-1zm-849 5c-1-1 0-2 1-1 2 0 2 0 1 1h-2zm17-1v0zm797-6-3-2c-1 0-5-2-4-3l3 1c3 0 5 1 5 3l2 2c0 1-1 1-3-1zm-796 6v-1h2c1 1 0 1-2 1zm787-6zm-15 0-4-1h-4l4-1h5c0 1 0 3-1 2zm26-3 1-1 1 1h-2zm-24-1c-1 0-1-1 1-1h2c0 1-2 2-3 1zm25-3-1-3-1-1h-1l2-1 1-1 1-2 2 1 1 5v1h1l-2 1-1 1c0 1-1 1-2-1zm-774 3v0zm761-6-2-1h5v1h-3zm-31-4 3-1h2l-4 2-1-1zm-713 4h1v1l-1-1zm7-1a37 37 0 0 0 5-2l7-5 2-2c2-2 5-3 5-2l-6 6-4 2c-2 0-3 1-3 2 1 1 0 1-2 1l-5 1h-1zm756-5h1v1l-1-1zm-9-2 1-1v2l-1-1zm-82-2zm74 0 1-1v1l-1 1v-1zm-30-1v-2c0-1 3 1 2 2 0 2-1 1-2 0zm-58 0s-1 0 0 0zm63-1 1-1 1 1h-2zm-44-1v-1l1 1h-1zm-612-2h2l-1 1-1-1zm602-3 2-2v2h-2zm75-2-1-1h1l2-1v2h-2zm-663 5-3-1h-2l1-1 5 1h1l-2 1zm484-4zm-6-1h-3c-3-1-3-1 0-1h2l2 1h1v1l-2-1zm-490 3h-2 2zm477-5zm-9-2c-4 0-4-1 0 0 3 0 3 0 2-1v-1l2 1-1 1h-3zm-7-1zm60-1s-1 0 0 0zm-67 0-1-1h3l2 1h-4zm12-1h1l-1 1v-1zm-452 2h1v1l-1-1zm430-2-2-1 5 1h-3zm5 0zm-12-1 1-1h1v1h-2zm-132 0zm72-2h1v1l-1-1zm-264 0zm-11-1h1v1l-1-1zm-87 0 1-1-1 1zm87-1 1-1v1h-1c-1 0-1 0 0 0zm163-1 2-1v1h-2zm-167-1-2-1h3v2l-1-1zm339-2c-1 0-1 0 0 0zm-172 0c-2 0-2-1 0-1l2 1h-2zm28 0c0 1-1 0 0 0zm-32 0 1-1v1h-1zm-119 0zm139-1h1v1l-1-1zm18 0zm-97-1 8-1c1 1-1 1-4 1h-4zm94-1 2-1h3c1 1 0 1-1 1h-4zm19 0zm6 0 1-1 2 1h-3zm-28 0z" fill="#b9433a"/>
</svg>
