<svg xmlns="http://www.w3.org/2000/svg" viewBox="0 240 1000 400"><path d="M406 622a433 433 0 00-36 0l-21-2h14l28-1h23l1 1 1 1-10 1zm49-6h2v1l-2-1zm63-3c-2-1-2-1 0-1l3-1 10-4h3v1h-2l-11 5h-3zm-16 0l-1-1h1v1zm-43 1h-5l-7-1h-1-1l-1-1 6-2a18980 18980 0 0030-5l-2-1c-2 0-2 0 0-1l4 1 5 1 4-1 3-1 3-1 1-1h3a287 287 0 0113-3l7-2 5-1 6-2 6-2 4-1 1-1-2-2h-5l-6 1-1-1 1-1v-1h-1l1-1 2 1h1v1l1 1 1-1v-1h1c1 1 3 0 3-1-1-1 0-1 0 0h2l2 1 1 1 1 1v1l4-1 2-1 8-2 10-2 1-1v-1l7-1 1-1 2-1 2-1 3-2c0-1-1-2-3-2h-4 1c4 2 4 2-4 1-13 0-17-1-18-3h4l4 1 7-1 3-1 3-1 3-1 3-1c0-1-3-3-6-3s-3 1-2 2l-2-1-5-1-5-1h-18l-5-1h-4l-3-1h-2-5l-5-1a83 83 0 01-16-2l-1-1-1 1-1 1h-4l-5-1-5-1-6-1-10-1-3-1 5-1c5 0 6-1 2-1l-4-2h-7l-5-1c-4 0-7 0-2-1h2c1-1-3-2-5-2l-2-1-5-2-7-2-5-1-7-2-9-2-14-3-7-1h-10l-2-1-3-1a176 176 0 01-14 1h-2l-2 1 1 1h1l-1 1 1 2 2 2c0 2 0 2 2 2h4c1 2 4 3 6 3a185 185 0 0129 4l9 1 8-1 2 1-2 1h-2l2 1 1 1-6 1c-7 0-7 0-7 2h-1l-4 1-5-1-13-1 1 1 2 1h-7l-16-3c-1 1-1 2 1 2l3 2 4 2c4 0 4 0 4 2l1 1 1-1v-2l3 1 2 2c1-1 2 0 2 1l3 1 2 2 4 2 1 1h-6c-3-2-7-2-8-2l-1 1-7-2-16-3-13-2h-2c-3-2-5-1-5 3 1 3 1 3-1 2l-9-3-9-2-4-1-4-1h-4a568 568 0 01-9-1c-1-1-9-3-11-2l-2-1-7-2-5-1h-4-2l-2 1h-3l-9 2-3 1v2h-5l-4 1-6 3-4 1c-6 2-13 5-17 9l-5 1c-3 1-10 3-17 7l-6 3-3 1-5 2a148 148 0 00-19 8 7077 7077 0 01-35 7l-10-1c-1-1 4-3 7-2l1-1c1 0 0 0 0 0h-1c-2-1-1-1 1-2 2 0 3 1 2 2l4 1a842 842 0 0138-11c1-2 6-4 10-4 7 0 8-1 9-2l2-2 2-1 3-2 3-2-13 1-8 3-4 2-3 1-5 1 2-1 3-2 4-2 3-1c2-1 2-3 1-2-2 0-2-1-1-2v-1l-4 1a462 462 0 01-52 20c-3 1-4 1-3 2l-4 2-3-1 1-1h2v-1c-3 0-5-1-5-2l4-1c5 0 12-2 16-4l9-4a187 187 0 0023-8l9-3 4-3-6 1-4 2-12 5h-2l1-3 3-2 3-1 5-1 8-3c0-2-2-2-11 1l-10 4-2-1c2-3-1-3-5-1-2 1-2 2 0 2 3 0 4 1 2 1l-2 2-2 1h-18l1-2c1-2 2-3 9-4l7-3-9 1c0 1 0 0 0 0v-1l4-1a9284 9284 0 018-6l-2-1-1-2c-1 0-1 0 0 0h1l7-1c3-1 3-2 1-2l-2-2c0-2 0-2-3-1h-2c0-1 6-3 10-3 5-1 7-3 3-3l-14 2-4 1c-2 0-2-1-1-2l3-1h1l2-2 2-1 5-2 2-1 8-2c7-1 13-2 14-4h5l1 1h1v2h2c3 0 3-1 1-2v-2c1 0 1-1-1-2l-9 1-7 1a369 369 0 00-47 8l-3 1-4-2-3-1h1l7-1c2 1 5 0 6-1l2-1 5-3 2-1a240 240 0 0019-7l1-1-1-1h-5l-4-1h-13l-2-1h-1-1l-1-1 1-1c1 0 1 0 0 0h-15l-13 3-4 1c0 1 1 2 3 2l4 2h2l10 1-1 1a61 61 0 01-16-1h-2-1c-1-1-1-2 1-2 2-1 0-2-4-2l-5-1 14-3 7-1 3-1 4-1 10-1 9-1c0-2-1-2-7-2-9 1-15 2-17 4l-3 1c-1-2 0-3 5-4 3-2 5-3 3-3h-10l2-1 2-3-10-3-6-1h-4l-5-1-6-1-6-1h6l2-1c0-1-1-2-4-2-3-1-3-1 0-2 2-2 3-2 4 0l2 1 1 1h7v-1l-3-1c-6-1-7-2-7-3 0-2 1-2 6-1l7 1 2 1 7 1 5 1h7c7-1 8-1 5-3H99l1-2a1286 1286 0 0015-5l-8-1H85l1-2h2l-2-1c-3-2-7-2-10-1l-5 1-4 1h-1l1-1 1-2 3-1c2 1 2 0 3-1l4-1 2-1h4l2 1h4c3 1 4 0 4-2h1l2 1c3 0 2-1 0-1s-2-1-1-1l4-1 3-1 3-1h2l-2-4c-4-6-6-8-8-8h-3v-1c2 0 3-2 2-2H86c-1-1-2 0-3 1l-2 1-3-5-1-1h-1 3l2-1v-1c1 1 2 0 1-1h-2v1-2l1-3h1c3-1 3-3 1-4l-2-1c-2-4-3-5-6-6l-2-1 7-1 3 1 1-3c0-2-3-5-5-4l-4-2-3-1c-2 1-3 0-3-1l3-1 2-1v-5l-2-3-3-2h2l1-1c1-1-1-5-2-9l-1-2v-1h-1l-6-9-2-1v-1l2 1h2l1-1c1 0 1 0 0 0s-3-2-3-4l-2-2-1-2 1-1 1-1h4v-2l1-2h1l5 4c4 1 5 0 4-2l-1-2-1-1-2-6 1-4 1 1 3-1c1-2 2-2 5 0 1 2 1 2 2 1v-4c0-4 0-5 4-5 4-1 5-1 5-3v-4l4-4c1-2 1-2-2-4-3-1-3-2-1-2l4-2c0-1-12-11-15-12l-5-4 10 3 4 1 1 2 3 4c2 2 2 2 4 1 1-1 3-1 3 1 0 1 1 2 3 2l3-1c2 0 2-2 0-2l-4-2c-3-3-3-4 0-4 2 0 5-2 3-2h2l2-1 3-1h3v-1c0-1 0-2 3-2l3-1 4-1 8-3 1-1 2-1 1-1v-1c-2-2-3-2-3-1l-1 1c-1-1-6 0-6 1l-5 1h-5v-1l3-1 2-1-3-1c-2 0-2 0-1-1l-1-2v-2l-5-1-2 2-2 2-3 1h-6l-6 1h-4v-2l3-2 4-1h2l4-2c-1-1 5-3 9-3l6-2 3-2 4-1h2l4-4-2-1c-2 0-3-3-3-3h4l7 1 4-1v-2l-1-2-3-1-3-1-3-1c-1-1-1-1 1-1 2-1 2-2 0-2l-11-1-4-1-2-1-6-3h2l2 1v1h12c8-1 8-1 7-2v-1l6-1a508 508 0 0034-6l-3-1c-3 0-3-1 0-2l6 1 3 3c2 3 4 3 4 2l34-2 16-2c2-2 16 0 21 2l2 2 1 2c2 1 6 2 7 1h3l5 1h5l6 1 5 1 4 2c2 0 3 1 3 2 1 1 1 2 3 2l3 1h1l1 2 3 1h1l10 4 4 2c2 1 3 1 3 3l4 4 2 1 2 2 3 2 3 3 2 1 1 2 2 2 1 3 5 5c-1 1 1 3 3 4 2 3 3 3 0 6-1 2-1 2 1 6l2 6 1 3c0 4 0 5 2 4v2c-2 1-2 3-1 6v3c-1 2 0 3 2 4a66 66 0 017 1l2-4h1v-2c-1-2-2-2-3-1-2 1-2 0-2-5l1-7v1h1l2-2 2-2 1-2c-1-3 0-3 3-1 2 3 3 3 6 1s4-2 3-4v-5l-1-5c-4-6-3-6-2-6h2l-3-3-2-3c2 0 3 1 4 3h2c2-2 4-2 4 0l3 5 2 3c0 2 1 2 2 1s4 0 4 2l-2 1-3 2c-1 2-1 2 1 2l1 1 1 2c1 0 2 0 2 2 0 4 4 5 7 3l3-1h5c3 0 4 0 6-3l3-3 9-7c2-2 2-2 2 0l-1 3c-5 3-12 10-12 13l-1 2-1 1h-2l-3 4 3 1a313 313 0 0125 3h-16v2h4c1 4 1 4 3 4l2 1 3-1h11l6 1h13l3 1 2 1 3 1h4c6-2 8-2 9-1l11 2 4-1 25-3a400 400 0 0026-1c11 0 11 0 10-2l3-1 5 1c0 1 2 2 3 1l-1-1v-1l10-1a389 389 0 0043-5l13-1-3 1h-3l-2 1-5 1a329 329 0 010 2l16-3a281 281 0 0044-4 12351 12351 0 0010-4l-1-1-1-1 12-3c8-1 8 0 12-2l5-2 6-1h9l-3 1-4 2h-4l-5 1-8 2-5 1h-3c-5 0-6 1-5 3l3 1h3l2-1 2-1h2l3 1 7-3h1c1-1 1 0 0 0h7l8-1 6-1 7-2 6-1 4-2 6-1h4l11-3a2172 2172 0 0039-10 1444 1444 0 0138-10l8-4 7-2 3 1 7-3 5-2 2-1 2-1c2 0 4-2 7-5l4-3c2 0 2 0 1 2v4c2 0 2 0 2 2l2 1 1-1 3-1c3 0 4 0 6-2l2-1 3-2 3-2c2 1 4-1 9-7l2-1v3l-4 8 2-1c2-1 3-1 3 1l-1 3c-1 1 1 2 2 1h2l8-1 2-1 5-3 2-1c2 1 4-1 4-2h1v2l1 2 3-1 1-1 2-1c1-2 4-2 3-1v1a905 905 0 019-6c1-2 2-3 3-2l4-1c5-3 5-3 6-2l-1 2a55 55 0 00-12 10l-2 1-3 2-1 1-3 2c-3 1-6 4-6 5l-3 2-2 2-1 1-2 1-5 2-4 2-12 6c-5 2-5 2-5 4v1l-1 1c0 1 1 1 5-2l7-1 7-1 11-5-2 2c-2 2-4 4-9 6l-1 3-1 3c-2 1-3 2-2 5l1 3 2-2v-1l2-2 3-1 2-2 3-4 1-2 5-8 1-2c0-2 0-2 2-3h3l-1 1-1 2v2l-1 1-1 3-1 3 2-1c1-1 2-1 3 1l-2 3c-1 1-3 4-2 5l2-1c2-1 4 1 3 5l1 1 4-4 2-1v3l-1 4 4 1 5-1c2-1 3-2 8-2l3 1h1c-1-1 0-1 3-2l3 1c0 2 4 2 7 1h5l-1 1-2 1-2 1-3 1-1 1-3 1-1 2-1 2v1c0 2 7 0 7-1l1-1 6-6 1-2 1-1 4-2v4l-1 2h8l8-3 4-2 3-2-1 2-1 1-2 1-1 1-1 1-2 2-3 1-3 2-3 2-2 1-4 3-3 2 3-1c3-2 6-2 6-1l-1 1v1l-11 6c-3 1-4 2-4 5l-1 4c2 0 0 3-4 5-2 1-4 5-5 8l-1 3c-1 0-2 1-1 3l-1 2c-2 1-8 7-9 11-1 3-3 5-5 4v-4l1-2c-1-1-6 0-9 1-2 1-2 2 0 2l3 1v2l-1 1c-1-1-7 2-8 3l-4 2-3 3-2 1-1 1h1l-1 1v1l1 2c0 1 0 2-2 2l-1 2-1 2a1435 1435 0 00-5 6l-1 2 1 1 2 1 3-4 4-5 3-2 1-1 4-2 1 1v1l2-2 2-1 1-1v-1c1 0 3-3 3-5l2-3 1-1c-1-1 2-4 3-4v2h-1l-1 2v2l-2 3-3 4-5 8-2 4-1 1-1 2-3 3-2 2h-1c-1-1-4 0-6 2l-5 3-1 2v3l-1 1-3 3-1 2-3 3c-2 3-6 5-5 3v-2h1l3-3 1-1 3-5 2-3 1-2h-1l-6 2v1l-6 2-12 5-3 1-1 1-1 1h-5c-2 1-2 1-1 2l1 1 1 1 1 1-10 5-7 2-4 2-2 1-4 1-4 1c0 2-3 3-7 5l-9 5 3 1h1c-3 1-5 2-6 4l-1 1-2 1h-3l-6 5-1 1-1 1-1 1-2 2-1 1c0 2-2 3-5 3s-4 1-2 2c1 1 0 2-1 2h-2c0 2-2 4-4 4l-2 1a572 572 0 01-3 4l-1 2-1 1h-2l-4 1c-2 2-8 3-8 2h-2l-2 1-1 1v3l1 1c1 1-1 3-3 3l-2 2-2 2h-1l-2 2a388 388 0 00-12 5l-10 4-1 1-1 1-3 2-2 1 13-2 14-5 7-2a39 39 0 009-3l9-4 7-3 3-1 2-1 2-1 3-2 6-3a140 140 0 0122-12l5-3 8-5 5-4 2-1 4-3c2-1 5-2 6-4l15-11 3-3 4-3 5-3 3-2 1-1h2l1 2-2 1a100 100 0 00-6 6l-2 4c0 1-1 3-3 3l-2 1-3 2-1 2-5 5-2 1h-1l-2 1-2 2-4 3-4 2-4 3h-2l-8 4-7 4-2 1-4 3-5 4-1 1-3 1-2 2-4 3a38 38 0 01-8 5l-10 6-2 1-5 2-4 2c-1 1-8 4-13 4l-5 1-2 2h-2a75 75 0 01-21 5l-7 1-8 1c-2 2-6 3-8 3l-5 1-13 4h-2l2-1 3-1v-1c-1-1-4-1-8 1l-1 1c2 2 1 2-2 3-7 1-9 2-11 0h-9l-3 1-1 1-3 1-9 1h-5-2c-3-1-7 0-6 1 2 2 9 3 9 1v-1l2 1 1 1v1c-1 1-1 1 3 1h11l4-1 8-1c13 0 15 1 16 2l1 2-4 1h-5c-3-1-20 1-22 2l-18 2-12 2h-4l-5 1-3 1c-1-1-4 1-4 1l5 2c3 0 8 2 8 3l-5 1c-20-1-25 0-25 1s-5 2-11 1h-8a611 611 0 01-29 1c-4 0-4 1-4 2h-1l-7-2v2l-2 1h-10l-4 1a144 144 0 00-10 2l-2 1-3 1-4 1v1h-1c1-1-1-2-2-1l-1-3h-4l-8 3-8 2a36 36 0 00-11 3l-3 1c-1 1-5 2-13 2a126 126 0 00-19 4l-7 2-3 1-2 1h-4l-4 1h-3zm97-22v-1h-4v1h4zm104-9h6l-1-1-3-2-6-1a214 214 0 01-11-1l-2 1h-2l4 2 4 1h2l2 1h7zm36-16l-1-1-1 1h2zm-96 2h-1 1s1 0 0 0zm14-2c1-1 0-1-4-1l-7-1-4-1-2 1 1 1 6 1 5 1 5-1zm-24-1l-3-1v1h4-1zm145-10h-4l3 1 1-1zm-244-2h1l-7-2c-3 0-3 0-2 1l8 1zm-115 4h-1v1c1 0 2 0 1-1zm106-5l-1-1-1 1h2zm-291 10l2-1 2-1h-1l-4 1c-2 0-2 2 0 2l1-1zm-33 1l-1-1-1 1h2zm23-2v-2h-2l-1 3 3-1zm40-3l2-1c2 0 6-3 5-4v1h-2c-1-1-12 3-13 5l3 1 5-2zm-36 1h-1 1c1 0 1 0 0 0zm222-11l-11-3-10-1-6-1 7 3h1c0 1 3 2 9 2h5l3 1c3 0 3 0 2-1zm-39 1l-4-1c-2 0-2 0-1 1l6 1-1-1zm11-1c-3-2-7-2-5-1l6 2c1 0 1-1-1-1zm-145 4l-1-1-2 1h3zm-17-3h-1v1l1-1zm155-8h-4l3 1 1-1zm-136 2l2-1 3-1c1-2-1-2-4 0l-3 1-1 1v1l3-1zm-64-1h-2l-5 1 7-1zm-8-1v-1l-1 1h1zm13 0l2-1h-4l2 1zm-10-1l1-2 2-2h-8l-2 2c-1 1 0 1 1 1l3 1h3zm-15 0l-1-1-1 1h2zm7-1h-3c-1 0-1 1 1 1l2-1zm32-2l3-1c0-1-7 0-9 2h1l5-1zm-16-2h-2l1 1 1-1zm3-1h-2v1h2v-1zm19-2v-1h-3v1h3zm8-2h-1-1v1l2-1zm-41-4l7-2 4-2c2 0 2-1 1-1h-5l-8 3c-5 0-11 2-11 3l12-1zm18-3l-2-1-2 1 2 1 2-1zm3-3l-2-1-3-1-2-1c-2 0-2 1-2 2l3 1 3 1 3-1zm652-30l1-1c0-1 1-2 3-2l3-1 2-1 1-1 2-2 1-1c-1-1-4-1-4 1h-3l-2 1-3 2-4 5c0 2 2 2 3 0zm-675 28c1-1 1-1 0 0h-2l-1 1 3-1zm-40-13h-3l3 1v-1zm-25-10l-2 1h2v-1zm-9-1h-3l3 1v-1zm13-1l-4-1-1 1h5zm4 0l-2-1-2 1h4zm26-9v-1l-1 1h1zm-35-10v-1h-7c-1 1 0 1 1 1l2 1h2l2-1zm8 0l1-1h-4l-2 1h5zm782-54v-1-2l-1 2 1 1zm63-5c0-1-1-1-2 1h-2 2l2-1zm-3-6h2c3 1 8-2 10-5l1-2h-3l-4 2-2 1-1 1h-1l-3 2c-2 2-2 3 1 1zM93 443l-1-1-4-1c-3 0-4 0-3 1 2 2 3 3 5 2l3-1zm-9-32h-2l2 1v-1zm-1-3l-2-3c-2-1-3 2-2 3 2 2 4 2 4 0zm-4-6h-2l2 2v-2zm832-40l-1-1v2l1-1zm-393-4l5-1 4-2h3c1 1 9-1 10-1l-1-1h-14a424 424 0 00-24 4l3 1h14zm32-5l2-1c-1-1-10 0-10 1l5 1 3-1zM83 369l-1-6c-1 0-1 0 0 0l-1 1c-1 0-2 1-1 2l1 2c1 5 2 7 2 1zm575-23h10l11-2 8-1 8-1a61 61 0 0016-2l5-2 5-1 5-2-12 1-8 1-21 3-9 1a67 67 0 00-14 2l-5 1-2 1v1h3zm-86 0v-1l-1 1h1zm20-1c4-1 1-1-4-1a891 891 0 014 1zm5 0l-1-1-1 1h2zm-174 2c3-2 3-3 0-3-2 0-5 3-5 4l5-1zm310-13c1-1 0-1-1-1-1-1-2 0-2 1h3zm210-11l2-2 1-2-4 1-6 2v2h2c1 2 4 1 5-1zm-531 23v-2l-4 2c0 1 1 2 2 1l2-1zM83 359h-1l1 1v-1zm620-27l-1-1v2l1-1zm234-18h1l-1-2-1 1v2l1-1zm-820 33v-1l-1 1h1zm231-12l-1-2c-1-1-1-1-1 1l-1 1c-1 1 0 2 2 2l1-2zm25 0l-1-2v2h1zm-260 9c-1-1-2 0-1 1h2l-1-1zm15-10c1 2 3 1 8-2l6-3c1 0 3-2 2-3l-2-1h-2-1l-6 1-4 1c-1 2-9 3-11 3h-2l1 2c3 2 9 3 10 2h1zm207-10c2-2 2-2 1-4-1-1-1-2 3-2 3-1 4-2 2-5-2-6-5-11-10-15l-8-7-2-1-1-1-3-2a67 67 0 00-12-6l-4-1-4-1h-2l-4-2-4-1h-1-1l-13-2c-7-2-12-2-24-2h-14c-4-1-7-2-9-1-3 1-3 1-2 3h30l24 3 1 2h-3l-9-1c0 1 2 2 8 3l8 1a632 632 0 0020 10l6 4a433 433 0 0014 11c1-2 2-1 2 2s0 4 2 4l1 2 2 1 1 3 3 7 2-2zm-216 4v-2c-1-2-3-2-4 0v2h1 3zm4-3c1-1 0-1-1-1v1l1 1v-1zm172-10v-2l-1-1h1c1 1 1 1 0 0l-3-2-3-1-1 1-1 2 2 1 3 2h3zm642-31l1-2-4 1-1 3 4-2zm-636 28h-1v1l1-1zm-2-2l-2-2-10-6c-2 0-1 1 0 2l3 2 6 3v1c0 1 2 2 3 0zm-17 0l-1-2c0-1-1-2-3-2l-7 2 1 1 9 2 1-1zm-154 3v-1l-2 1h2zm142-9h-7-1l5 1 3-1zm-121-30l-6-3c-1 0-1 1 1 3l4 2h2l-1-2zm368 332l3-1 3-1h2a117 117 0 01-2 1l-4 2c-3 0-3 0-2-1zm21 0l1-1h1l-1 1h-1zm6-6c-1 0-1-1 0 0l2-1h2v1h-4zm-98 4h1l-1 1v-1zm209-17v-1c1-1 4 0 3 1h-3zm-211 9v-1h1v1h-1zm6 0h1-1zm-11-1h0zm40-1v-3c1 0 4 2 3 3h-3zm-13 0l-1-1c0-1 2-2 3-1h3c2 0 3 1 1 1l-4 1h-2zm-43 0h-2 5l2 1h-2l-3-1zm265-11v-1 1c1 1 0 1 0 0zm3 0l-3-1h3c2-1 5 0 4 1h-4zm11-1c-1 0 0 0 0 0h1l-1 1v-1zm-189 6l11-1-5 1-1 1h-7l2-1zm-124 5h0c-1 1-1 1 0 0zm156-10l-4-1-2-1h1a656 656 0 007 1c1 0 1 1-1 1h-1zm-440 17l2-1 9-1-2 1h-2c-2 1-5 2-7 1zm449-23v-1 1zm-450 18l1-1 4-1c2 1 2 1 1 2h-6zm314-15l1-1 4 1h-5zm115-10l-5-1h-3-1l-6-1-2-1h-5l-3-1-11-2h-3l-9-2c-3-1-3-2 1-2h4c1-1 3 0 6 1l4 1h13l6 1h2l3 1 4 1 3 1 4 2 3 1 3 1h-8zm-374 15l2-1c2-1 2 0 0 1h-2zm271-14h-2l2-1 3 1 1 1-4-1zm21 0l-1-1h-2l-1-1h2l1-1 8-1 3-1c1-2 4-1 4 1v1l-2 1h2l1 1h-2l-5 1h-8zm2-1h-2l3 1-1-1zm-11 1l-3-1 2-1 1-1h1l1 1c1 0 2 1 1 2h-3zm28-2h2v1l-2-1zm-42 0l-2-1h5c1 1-1 1-3 1zm11-2h0zm-336 10c-3 0-3-1-2-1l4 1c1 0 5-1 4-2l3-1 3 1c1 1 1 1-4 2h-8zm305-13c-2-2 0-4 2-3l1 4c-1 1-3 0-3-1zm-231 10l1-1c2 0 2 0 1 1h-2zm648-29c-2-1-1-2 1-2l2 1-3 1zm-424 16h2l-1 1-1-1zm444-20l3-1v1l-3 1h-2l2-1zm-395 17l-6-1c-3 0 0-1 4-2 4 0 4 0 6 2 2 1 3 1 1 1h-5zm-335 15v-5l2 1v1l-1 1-1 2zm716-32h1l1-1h1l1-1 4-1h2c0 1-1 2-2 1l-2 1-1 1h-3-2zm-3 0l1-1h1l-1 1h-1zm-725 30l-2-1-3-1c0-2 2-2 4-1l5 1s0-1 0 0v1l-2 1h-2zm335-14l-1-1h2c1 1-1 1-1 1zm21-2h-6c0-2 1-2 2-1h3l4 1h-3zm-337 15v-1l2-1v1l-2 1zm729-32l1-1h1l-2 1zm-420 17h2c2 0 2 0 0 1l-2-1zm35-2h-1 1zm388-17c0-2 7-5 7-3l-2 2-2 1h-3zm-413 15c-5-1-5-1-4-2h3l3 1c1-1 4 1 4 1h-6zm-329 14c0-2 4-3 7-3s1 2-2 2a472 472 0 00-5 1zm155-6l1-1 1 1h-2zm-180 5v-2l-1-2c-1-1 0-1 6-1 10 0 13-1 20-3l10-1-2 1-4 3-2 1h-7l-10 3-7 1c-1 2-2 2-3 0zm762-34h-2c-3 1-1-1 2-2l6-1 3-1v-1l6-1 4-1 3-2 4-2 2-1 2-1 2-1 1-1a34 34 0 0114-11l5-3-4 4-2 2-3 2-2 2-4 2-1 1-11 9-5 3-5 2-6 1c-4 2-6 2-9 1zm-403 17l-4-1-4-1c-3 0-4-2-1-2h2l3 1h6l1 2c0 1-1 2-3 1zm-316 12l-2-1 1-1 2-1 2 1 1 1 2 1h-6zm8 0l3-2 1 1-2 1h-2zm-60-9l1-1 5-2 6-1 6-2 6-1h6l5-1c2 1 2 2-1 2a206 206 0 00-34 6zm-10-3l2-2v1l-2 1zm-2-1h1v1l-1-1zm59-3c-2-1-1-1 1-1l2 1h-3zm-8-12c0-1 1-2 2-1l-1 1h-1zm7-1l2-1h8l-5 1h-5zm784-35l1-1c0-1 0 0 0 0v1h-1zm4-4c1-2 2-2 2-1s0 2-2 2v-1zm-784 34l1-1 1 1-1 1-1-1zm-9 0h2-2zm796-35l4-4c3-1 3-1 1 1l-2 3h-2-1zm-785 30h1-1zm792-35v-1l1 1h-1zm3-3l1-1h1c0 1-1 2-2 1zm-798 35h1c1 0 1 0 0 0h-1zm-62-20h3-3zm-15-5c0-1 0-2 2-2l1 1c0 1-2 2-3 1zm5-2h2c1 0 1 0 0 0l-2 1v-1zm886-41l1-1v1h-1zm-855 9l-1-2h2l1-1h3c1 1 0 3-1 3l-1 1c-1 1-1 1-3-1zm-19-55h1v1l-1-1zm0-39l-1-1 1 2v-1zm298-17c0-2 0-2 1-1l1 2c-1 2-2 1-2-1zm281-11l3-1 1 1h-4zm7-1h1l2-1 1 1h-4zm-139 6l1-1 1 1h-1-1zm5 0c-2-1-1-1 1-1h4l-5 1zm142-6l1-1v1h-1zm-135 4v-1h1l-1 1zm7-1l2-2h6l-1 1-2 1h-5zM62 356v-1l1 2-1-1zm496-22v-1l1 1h-1zm34-4l-3-1h-1l10-3a438 438 0 001 2l-1 1h-2l-2 1h-2zm16-4l4-1 4-1 21-1-12 2a377 377 0 00-17 1zM69 349v-2l2 1v1h-2zm605-27v-1l2 1c1 0 1 0 0 0h-2zm-313 13v-1h1v1h-1zm277-12h0zm8 0l2-1c3 0 3 1 0 1h-2zm-3 0h1-1zm45-3l5-1c2 1 1 2-2 2l-3-1zM61 344l-5-4c-1-2 0-2 1-1l3 2 2 1c2 3 1 3-1 2zm45-36h3v1l-1 1-2-2zm9-3h3l-1 1-2-1zm873-38l1-1v1h-1zm-616 22l-1-2c0-1 1-1 2 1 2 3 2 4-1 1zm-254 12v-1l2 1h-2zm233-30c-1-1 0-2 1-1v1h-1zm-43-3v-1l1 1v1l-1-1zm-3 0l1-1h1l-1 1h-1zm-1-1v-1l1 1h-1zm-174 7l4-1h-1l-2 1h-1zm-21-2c-6 0-5-1 3-2h7c1-1 3-2 4-1l1 1-1 1-14 1zm-5-7l1-1 1-1c0-1 0-1 0 0h1v1l-1 1h-2zm1-5h1l-1 1v-1z" fill="#f7c83b"/></svg>
